<svg xmlns="http://www.w3.org/2000/svg" xmlns:xlink="http://www.w3.org/1999/xlink" width="400" zoomAndPan="magnify" viewBox="0 0 300 225" height="300" preserveAspectRatio="xMidYMid meet" version="1.0"><path fill="#7e7f80" d="M 172.214844 54.378906 L 218.621094 8.007812 L 217.128906 6.515625 L 170.722656 52.890625 C 171.238281 53.367188 171.734375 53.867188 172.214844 54.378906 Z M 172.214844 54.378906 " fill-opacity="1" fill-rule="nonzero"/><path fill="#7e7f80" d="M 129.652344 52.890625 L 83.246094 6.515625 L 81.757812 8.007812 L 128.164062 54.378906 C 128.640625 53.867188 129.136719 53.371094 129.652344 52.890625 Z M 129.652344 52.890625 " fill-opacity="1" fill-rule="nonzero"/><path fill="#7e7f80" d="M 151.242188 44.828125 L 151.242188 -5.84375 L 149.132812 -5.84375 L 149.132812 44.828125 C 149.484375 44.816406 149.835938 44.800781 150.1875 44.800781 C 150.542969 44.800781 150.890625 44.816406 151.242188 44.828125 Z M 151.242188 44.828125 " fill-opacity="1" fill-rule="nonzero"/><path fill="#7e7f80" d="M 129.984375 23.40625 L 128.035156 24.210938 L 137.695312 47.511719 C 138.332031 47.222656 138.980469 46.949219 139.640625 46.703125 Z M 129.984375 23.40625 " fill-opacity="1" fill-rule="nonzero"/><path fill="#7e7f80" d="M 99.464844 52.765625 L 98.65625 54.710938 L 121.96875 64.359375 C 122.21875 63.699219 122.492188 63.054688 122.78125 62.417969 Z M 99.464844 52.765625 " fill-opacity="1" fill-rule="nonzero"/><path fill="#7e7f80" d="M 201.71875 54.710938 L 200.914062 52.765625 L 177.59375 62.417969 C 177.886719 63.054688 178.160156 63.699219 178.40625 64.359375 Z M 201.71875 54.710938 " fill-opacity="1" fill-rule="nonzero"/><path fill="#7e7f80" d="M 172.339844 24.210938 L 170.394531 23.40625 L 160.734375 46.703125 C 161.398438 46.949219 162.042969 47.222656 162.683594 47.511719 Z M 172.339844 24.210938 " fill-opacity="1" fill-rule="nonzero"/><path fill="#7e7f80" d="M 143.484375 35.832031 L 141.417969 36.242188 L 143.28125 45.605469 C 143.964844 45.445312 144.652344 45.304688 145.351562 45.191406 Z M 143.484375 35.832031 " fill-opacity="1" fill-rule="nonzero"/><path fill="#7e7f80" d="M 129.035156 41.367188 L 127.28125 42.539062 L 132.589844 50.480469 C 133.160156 50.066406 133.742188 49.675781 134.339844 49.304688 Z M 129.035156 41.367188 " fill-opacity="1" fill-rule="nonzero"/><path fill="#7e7f80" d="M 117.804688 52.011719 L 116.632812 53.761719 L 124.574219 59.066406 C 124.945312 58.46875 125.339844 57.886719 125.75 57.316406 Z M 117.804688 52.011719 " fill-opacity="1" fill-rule="nonzero"/><path fill="#7e7f80" d="M 111.5 66.136719 L 111.089844 68.203125 L 120.460938 70.066406 C 120.570312 69.367188 120.710938 68.679688 120.871094 68 Z M 111.5 66.136719 " fill-opacity="1" fill-rule="nonzero"/><path fill="#7e7f80" d="M 189.285156 68.203125 L 188.875 66.136719 L 179.503906 68 C 179.664062 68.679688 179.804688 69.367188 179.917969 70.066406 Z M 189.285156 68.203125 " fill-opacity="1" fill-rule="nonzero"/><path fill="#7e7f80" d="M 183.746094 53.761719 L 182.574219 52.011719 L 174.628906 57.316406 C 175.039062 57.886719 175.433594 58.46875 175.804688 59.066406 Z M 183.746094 53.761719 " fill-opacity="1" fill-rule="nonzero"/><path fill="#7e7f80" d="M 173.097656 42.539062 L 171.34375 41.367188 L 166.035156 49.304688 C 166.632812 49.675781 167.214844 50.070312 167.785156 50.480469 Z M 173.097656 42.539062 " fill-opacity="1" fill-rule="nonzero"/><path fill="#7e7f80" d="M 158.957031 36.242188 L 156.890625 35.832031 L 155.027344 45.191406 C 155.726562 45.304688 156.414062 45.445312 157.09375 45.605469 Z M 158.957031 36.242188 " fill-opacity="1" fill-rule="nonzero"/><path fill="#7e7f80" d="M 265.019531 33.195312 C 264.570312 31.917969 263.691406 31.578125 263.203125 31.488281 C 261.566406 31.191406 259.445312 32.652344 256.570312 36.082031 C 240.222656 54.886719 219.175781 67.472656 206.777344 73.847656 L 180.285156 73.847656 C 180.296875 74.199219 180.308594 74.546875 180.308594 74.902344 C 180.308594 75.253906 180.296875 75.605469 180.28125 75.953125 L 202.546875 75.953125 C 198.730469 77.789062 196.410156 78.726562 196.332031 78.753906 L 188.347656 81.414062 L 179.917969 79.738281 C 179.804688 80.433594 179.664062 81.121094 179.503906 81.800781 L 184.304688 82.757812 L 178.695312 84.621094 L 177.542969 85.007812 C 176.9375 85.207031 176.355469 85.476562 175.804688 85.789062 C 174.585938 77.1875 172.394531 69.117188 169.242188 63.882812 C 162.035156 51.929688 151.820312 52.945312 150.1875 53.191406 C 148.558594 52.945312 138.34375 51.929688 131.136719 63.882812 C 127.980469 69.117188 125.789062 77.1875 124.574219 85.789062 C 124.019531 85.476562 123.441406 85.207031 122.835938 85.007812 L 121.683594 84.621094 L 116.070312 82.757812 L 120.871094 81.800781 C 120.710938 81.121094 120.570312 80.433594 120.460938 79.738281 L 112.027344 81.414062 L 104.097656 78.777344 C 104.007812 78.738281 101.671875 77.796875 97.835938 75.953125 L 120.09375 75.953125 C 120.082031 75.605469 120.066406 75.253906 120.066406 74.902344 C 120.066406 74.546875 120.082031 74.199219 120.09375 73.847656 L 93.601562 73.847656 C 81.1875 67.464844 60.152344 54.882812 43.820312 36.097656 C 40.933594 32.652344 38.820312 31.1875 37.175781 31.488281 C 36.6875 31.578125 35.804688 31.917969 35.359375 33.195312 C 34.328125 36.136719 36.222656 42.828125 38.984375 45.984375 C 39.070312 46.082031 39.160156 46.179688 39.25 46.277344 C 38.445312 46.820312 37.808594 47.746094 37.355469 49.066406 C 36.90625 50.386719 37.390625 52.074219 38.839844 54.234375 C 39.945312 55.878906 41.652344 57.804688 43.84375 59.882812 C 42.714844 60.519531 41.960938 61.53125 41.609375 62.90625 C 41.296875 64.121094 41.800781 65.574219 43.109375 67.230469 C 44.394531 68.859375 46.535156 70.753906 49.351562 72.753906 C 49.171875 73.179688 49.039062 73.636719 48.964844 74.128906 C 48.636719 76.230469 49.960938 78.917969 52.503906 81.316406 C 53.550781 82.304688 55.199219 83.605469 57.601562 84.847656 C 57.253906 85.410156 57 86.15625 57.019531 87.167969 C 57.035156 88.054688 57.441406 89.390625 59.296875 90.738281 C 60.347656 91.503906 61.859375 92.238281 63.78125 92.867188 C 63.511719 93.46875 63.355469 94.246094 63.488281 95.246094 C 63.613281 96.136719 64.183594 97.4375 66.21875 98.566406 C 67.78125 99.433594 70.179688 100.136719 73.304688 100.492188 C 73.082031 100.703125 72.871094 100.933594 72.699219 101.1875 C 72.207031 101.910156 71.738281 103.132812 72.316406 104.835938 C 72.597656 105.671875 73.382812 106.8125 75.519531 107.484375 C 76.425781 107.773438 77.484375 107.953125 78.679688 108.023438 C 78.757812 108.410156 78.886719 108.804688 79.078125 109.195312 C 79.546875 110.160156 80.589844 110.828125 82.175781 111.1875 C 82.835938 111.339844 83.609375 111.433594 84.476562 111.472656 C 84.386719 112.304688 84.570312 113.160156 85.039062 114.007812 C 85.554688 114.933594 86.617188 115.542969 88.199219 115.8125 C 88.804688 115.914062 89.492188 115.964844 90.253906 115.964844 C 90.640625 115.964844 91.050781 115.949219 91.476562 115.921875 C 91.476562 115.921875 91.476562 115.921875 91.476562 115.925781 C 91.035156 117.09375 91.1875 118.335938 91.914062 119.523438 C 92.324219 120.191406 93.207031 121.039062 95.085938 121.269531 C 95.421875 121.3125 95.78125 121.332031 96.164062 121.332031 C 96.421875 121.332031 96.695312 121.320312 96.976562 121.300781 C 96.941406 122.214844 97.238281 123.121094 97.867188 123.960938 C 98.070312 124.230469 98.371094 124.523438 98.789062 124.773438 L 81.757812 141.796875 L 83.246094 143.285156 L 101.15625 125.386719 C 101.222656 125.386719 101.289062 125.390625 101.359375 125.390625 C 102.546875 125.390625 103.984375 125.113281 105.617188 124.5625 C 105.820312 124.988281 106.101562 125.390625 106.464844 125.769531 C 106.597656 125.90625 106.753906 126.046875 106.941406 126.179688 L 97.363281 131.796875 C 97.347656 131.808594 97.335938 131.820312 97.320312 131.832031 C 97.296875 131.847656 97.273438 131.863281 97.25 131.882812 C 97.210938 131.914062 97.171875 131.945312 97.140625 131.984375 C 97.121094 132.003906 97.097656 132.023438 97.082031 132.046875 C 97.046875 132.089844 97.019531 132.132812 96.992188 132.175781 C 96.980469 132.199219 96.964844 132.21875 96.953125 132.242188 C 96.921875 132.308594 96.898438 132.375 96.878906 132.445312 C 96.878906 132.449219 96.875 132.457031 96.871094 132.460938 C 96.871094 132.464844 96.871094 132.464844 96.871094 132.464844 C 96.871094 132.46875 96.871094 132.46875 96.871094 132.46875 C 96.832031 132.640625 96.554688 133.898438 96.621094 135.945312 C 96.109375 136.171875 95.597656 136.394531 95.085938 136.609375 C 92.230469 137.820312 90.894531 141.117188 92.105469 143.972656 C 93.011719 146.113281 95.09375 147.402344 97.28125 147.402344 C 98.011719 147.402344 98.753906 147.257812 99.46875 146.957031 C 99.492188 146.945312 99.566406 146.914062 99.667969 146.871094 C 101.261719 149.933594 103.660156 153.296875 107.210938 156.773438 C 107.34375 157.019531 107.542969 157.238281 107.871094 157.359375 C 109.230469 157.878906 110.363281 156.371094 114.488281 150.523438 C 117.394531 146.40625 122.1875 139.621094 124.402344 138.945312 C 125.367188 140.230469 126.300781 146.082031 127.140625 154.691406 C 126.570312 155.246094 125.996094 155.800781 125.414062 156.34375 C 125.164062 156.578125 125.042969 156.914062 125.085938 157.253906 L 127.214844 173.214844 C 127.261719 173.566406 127.480469 173.871094 127.804688 174.027344 C 127.949219 174.09375 128.101562 174.128906 128.257812 174.128906 C 128.382812 174.128906 128.503906 174.097656 128.621094 174.054688 C 129.429688 187.199219 130.070312 202.488281 130.453125 217.183594 C 130.46875 217.6875 130.839844 218.113281 131.339844 218.195312 C 131.566406 218.230469 133.664062 218.566406 136.410156 218.976562 C 137.621094 222.636719 141.179688 225.171875 145.210938 224.910156 C 147.113281 224.785156 148.824219 224.054688 150.1875 222.921875 C 151.550781 224.054688 153.265625 224.785156 155.167969 224.910156 C 159.199219 225.171875 162.753906 222.636719 163.96875 218.976562 C 166.710938 218.566406 168.808594 218.230469 169.035156 218.195312 C 169.535156 218.117188 169.910156 217.691406 169.921875 217.183594 C 170.855469 181.613281 173.277344 142.535156 175.976562 138.945312 C 178.191406 139.621094 182.980469 146.40625 185.886719 150.523438 C 190.011719 156.371094 191.144531 157.878906 192.507812 157.359375 C 192.832031 157.238281 193.03125 157.023438 193.164062 156.777344 C 196.71875 153.300781 199.113281 149.933594 200.707031 146.871094 C 200.808594 146.914062 200.886719 146.945312 200.90625 146.957031 C 201.621094 147.257812 202.363281 147.402344 203.09375 147.402344 C 205.285156 147.402344 207.367188 146.113281 208.273438 143.972656 C 209.484375 141.113281 208.148438 137.820312 205.289062 136.609375 C 204.777344 136.394531 204.265625 136.171875 203.757812 135.945312 C 203.820312 133.898438 203.546875 132.640625 203.503906 132.46875 C 203.503906 132.46875 203.503906 132.46875 203.503906 132.464844 C 203.503906 132.464844 203.503906 132.464844 203.503906 132.460938 C 203.503906 132.457031 203.5 132.449219 203.496094 132.445312 C 203.480469 132.375 203.453125 132.308594 203.421875 132.242188 C 203.410156 132.21875 203.398438 132.199219 203.382812 132.179688 C 203.355469 132.132812 203.328125 132.089844 203.296875 132.046875 C 203.277344 132.023438 203.257812 132.003906 203.238281 131.984375 C 203.203125 131.945312 203.164062 131.914062 203.125 131.882812 C 203.101562 131.863281 203.082031 131.847656 203.058594 131.832031 C 203.042969 131.820312 203.027344 131.808594 203.011719 131.796875 L 193.4375 126.179688 C 193.621094 126.046875 193.78125 125.90625 193.914062 125.769531 C 194.277344 125.390625 194.558594 124.988281 194.761719 124.5625 C 196.390625 125.113281 197.828125 125.390625 199.019531 125.390625 C 199.085938 125.390625 199.152344 125.386719 199.21875 125.386719 L 217.128906 143.285156 L 218.621094 141.796875 L 201.585938 124.773438 C 202.007812 124.523438 202.308594 124.230469 202.511719 123.960938 C 203.136719 123.121094 203.4375 122.214844 203.402344 121.300781 C 203.679688 121.320312 203.953125 121.332031 204.214844 121.332031 C 204.59375 121.332031 204.957031 121.3125 205.292969 121.273438 C 207.167969 121.039062 208.050781 120.191406 208.464844 119.523438 C 209.191406 118.335938 209.34375 117.09375 208.902344 115.925781 C 208.902344 115.921875 208.902344 115.921875 208.902344 115.921875 C 209.324219 115.949219 209.738281 115.964844 210.125 115.964844 C 210.886719 115.964844 211.574219 115.914062 212.179688 115.8125 C 213.761719 115.542969 214.824219 114.933594 215.335938 114.007812 C 215.804688 113.160156 215.988281 112.304688 215.898438 111.472656 C 216.769531 111.433594 217.539062 111.339844 218.199219 111.1875 C 219.789062 110.828125 220.832031 110.160156 221.300781 109.199219 C 221.492188 108.804688 221.617188 108.410156 221.695312 108.023438 C 222.890625 107.949219 223.953125 107.769531 224.855469 107.484375 C 226.992188 106.8125 227.777344 105.675781 228.0625 104.835938 C 228.636719 103.132812 228.171875 101.910156 227.679688 101.1875 C 227.503906 100.933594 227.296875 100.703125 227.070312 100.492188 C 230.195312 100.136719 232.597656 99.433594 234.160156 98.566406 C 236.195312 97.4375 236.765625 96.136719 236.886719 95.246094 C 237.023438 94.246094 236.867188 93.46875 236.597656 92.867188 C 238.519531 92.238281 240.03125 91.503906 241.082031 90.738281 C 242.933594 89.390625 243.34375 88.054688 243.359375 87.167969 C 243.375 86.15625 243.121094 85.40625 242.777344 84.847656 C 245.179688 83.605469 246.828125 82.304688 247.871094 81.316406 C 250.417969 78.917969 251.742188 76.230469 251.414062 74.128906 C 251.335938 73.636719 251.203125 73.179688 251.023438 72.753906 C 253.839844 70.753906 255.980469 68.859375 257.269531 67.230469 C 258.574219 65.574219 259.082031 64.121094 258.769531 62.90625 C 258.417969 61.53125 257.660156 60.519531 256.53125 59.882812 C 258.726562 57.804688 260.433594 55.878906 261.535156 54.234375 C 262.984375 52.074219 263.46875 50.386719 263.019531 49.066406 C 262.570312 47.746094 261.933594 46.820312 261.128906 46.277344 C 261.21875 46.175781 261.3125 46.078125 261.402344 45.976562 C 264.15625 42.828125 266.046875 36.136719 265.019531 33.195312 Z M 261.09375 49.726562 C 261.171875 49.960938 261.320312 50.902344 259.84375 53.097656 C 254.492188 61.070312 235.382812 74.898438 214.289062 81.253906 C 226.824219 74.695312 245.027344 63.511719 259.707031 47.820312 C 260.257812 48.015625 260.726562 48.652344 261.09375 49.726562 Z M 255.449219 61.605469 C 256.132812 61.960938 256.574219 62.550781 256.796875 63.414062 C 256.863281 63.667969 256.882812 64.429688 255.667969 65.96875 C 250.730469 72.222656 232.714844 82.492188 212.207031 87.355469 C 214.5625 85.425781 217.132812 83.503906 219.710938 81.679688 C 234.210938 76.539062 247.03125 68.328125 254.886719 61.382812 C 255.082031 61.441406 255.273438 61.511719 255.449219 61.605469 Z M 249.402344 74.445312 C 249.566406 75.503906 248.898438 77.550781 246.472656 79.835938 C 244.332031 81.859375 237.164062 87.191406 221.75 86.757812 C 232.78125 83.203125 242.5625 78.394531 249.28125 73.945312 C 249.328125 74.105469 249.375 74.265625 249.402344 74.445312 Z M 241.320312 87.132812 C 241.3125 87.730469 240.800781 88.425781 239.882812 89.09375 C 236.007812 91.910156 224.46875 94.371094 207.902344 91.148438 C 208.257812 90.804688 208.625 90.464844 209.003906 90.121094 C 211.40625 89.628906 213.785156 89.058594 216.128906 88.421875 C 218.847656 88.714844 221.371094 88.847656 223.695312 88.847656 C 231.347656 88.847656 236.941406 87.4375 240.917969 85.726562 C 241.136719 85.984375 241.332031 86.398438 241.320312 87.132812 Z M 234.867188 94.96875 C 234.785156 95.578125 234.183594 96.222656 233.171875 96.785156 C 229.199219 98.988281 218.503906 100.007812 203.808594 95.710938 C 204.464844 94.800781 205.261719 93.855469 206.175781 92.882812 C 212.421875 94.195312 218 94.730469 222.8125 94.730469 C 227.511719 94.730469 231.46875 94.21875 234.601562 93.433594 C 234.804688 93.726562 234.976562 94.1875 234.867188 94.96875 Z M 217.75 109.203125 C 214.285156 109.988281 207.726562 109.085938 200.195312 106.183594 C 200.746094 105.210938 201.160156 104.222656 201.433594 103.226562 C 208.511719 106.308594 214.824219 107.855469 219.574219 108.027344 C 219.539062 108.121094 219.515625 108.210938 219.46875 108.308594 C 219.292969 108.664062 218.652344 109 217.75 109.203125 Z M 213.554688 113.019531 C 213.367188 113.359375 212.726562 113.652344 211.835938 113.804688 C 208.671875 114.34375 203.046875 113.34375 196.535156 110.675781 C 197.5 109.792969 198.335938 108.875 199.046875 107.933594 C 204.773438 110.171875 209.949219 111.269531 213.824219 111.457031 C 213.953125 111.945312 213.871094 112.445312 213.554688 113.019531 Z M 206.996094 116.640625 C 207.214844 117.222656 207.128906 117.800781 206.726562 118.457031 C 206.40625 118.980469 205.632812 119.175781 205.042969 119.25 C 202.5 119.5625 197.519531 118.300781 191.089844 114.515625 C 192.398438 113.800781 193.644531 113 194.808594 112.109375 C 199.074219 113.929688 203.035156 115.089844 206.304688 115.621094 C 206.617188 115.941406 206.859375 116.28125 206.996094 116.640625 Z M 200.878906 122.742188 C 200.523438 123.210938 199.765625 123.332031 199.1875 123.351562 C 196.292969 123.449219 191.453125 121.378906 185.84375 117.304688 C 185.808594 117.144531 185.773438 116.988281 185.734375 116.828125 C 186.824219 116.472656 187.890625 116.050781 188.929688 115.585938 C 193.738281 118.566406 197.992188 120.324219 201.308594 121.003906 C 201.460938 121.589844 201.324219 122.144531 200.878906 122.742188 Z M 192.445312 124.355469 C 192.128906 124.683594 191.695312 124.835938 191.257812 124.902344 L 186.613281 122.175781 C 186.546875 121.503906 186.460938 120.851562 186.367188 120.207031 C 188.703125 121.773438 190.882812 122.972656 192.84375 123.820312 C 192.738281 124 192.617188 124.179688 192.445312 124.355469 Z M 188.570312 143.964844 C 191.121094 135.65625 198.265625 131.542969 198.335938 131.5 L 198.335938 131.496094 L 200.566406 132.804688 C 197.164062 135.441406 188.503906 143.140625 189.742188 152.296875 C 189.039062 151.335938 188.292969 150.28125 187.609375 149.308594 C 182.558594 142.152344 178.765625 137.070312 175.929688 136.796875 C 175.625 136.769531 175.164062 136.820312 174.703125 137.226562 C 173.832031 137.996094 171.519531 140.042969 169.371094 179.042969 C 168.449219 195.777344 167.949219 212.320312 167.839844 216.25 C 164.605469 216.757812 153.246094 218.503906 150.222656 218.503906 C 150.210938 218.503906 150.199219 218.503906 150.1875 218.503906 C 150.175781 218.503906 150.164062 218.503906 150.152344 218.503906 C 147.128906 218.503906 135.769531 216.757812 132.535156 216.25 C 132.519531 215.679688 132.496094 214.832031 132.464844 213.761719 C 134.558594 214.183594 141.292969 215.363281 150.949219 215.363281 C 154.265625 215.363281 157.921875 215.226562 161.855469 214.867188 L 161.726562 213.46875 C 145.785156 214.917969 134.433594 212.746094 132.417969 212.320312 C 132.402344 211.785156 132.382812 211.214844 132.363281 210.609375 C 134.546875 210.832031 142.054688 211.523438 154.042969 211.78125 L 154.070312 210.375 C 141.730469 210.113281 134.175781 209.390625 132.316406 209.191406 C 132.070312 201.902344 131.636719 190.519531 131.007812 179.042969 C 130.886719 176.847656 130.761719 174.777344 130.640625 172.808594 C 154.503906 157.039062 173.59375 118.382812 179.140625 106.300781 C 181.804688 110.421875 183.933594 115.835938 184.566406 122.90625 C 184.597656 123.246094 184.789062 123.546875 185.082031 123.722656 L 196.972656 130.699219 C 195.035156 131.96875 189.5 136.144531 187.226562 143.554688 Z M 112.765625 149.308594 C 111.550781 151.03125 110.136719 153.039062 109.136719 154.269531 C 108.75 148.132812 101.671875 136.632812 99.382812 133.058594 L 101.417969 131.863281 C 102.390625 132.863281 106.679688 137.632812 109.210938 146.484375 L 110.5625 146.097656 C 108.09375 137.464844 104.0625 132.621094 102.664062 131.132812 L 115.292969 123.722656 C 115.589844 123.546875 115.78125 123.246094 115.8125 122.90625 C 117.371094 105.421875 127.8125 98.125 133.203125 95.492188 C 133.066406 99.265625 133.613281 101.042969 133.65625 101.179688 C 133.714844 101.363281 133.828125 101.53125 133.976562 101.65625 C 134.425781 102.035156 145.007812 110.949219 149.808594 112.804688 C 149.929688 112.851562 150.058594 112.875 150.1875 112.875 C 150.316406 112.875 150.445312 112.851562 150.570312 112.804688 C 152.804688 111.941406 156.296875 109.542969 159.433594 107.191406 C 153.882812 119.433594 144.027344 137.542969 129.050781 152.789062 C 127.585938 138.925781 126.28125 137.761719 125.671875 137.226562 C 125.214844 136.820312 124.75 136.769531 124.445312 136.796875 C 121.613281 137.070312 117.816406 142.152344 112.765625 149.308594 Z M 101.1875 123.351562 C 100.613281 123.332031 99.851562 123.210938 99.5 122.738281 C 99.050781 122.144531 98.917969 121.589844 99.066406 121.003906 C 102.382812 120.324219 106.636719 118.566406 111.449219 115.585938 C 112.484375 116.050781 113.550781 116.472656 114.640625 116.828125 C 114.605469 116.988281 114.566406 117.144531 114.53125 117.308594 C 108.929688 121.378906 104.09375 123.445312 101.1875 123.351562 Z M 93.652344 118.457031 C 93.25 117.800781 93.164062 117.222656 93.382812 116.640625 C 93.515625 116.28125 93.757812 115.941406 94.0625 115.621094 C 97.335938 115.089844 101.300781 113.929688 105.566406 112.109375 C 106.730469 113 107.976562 113.800781 109.285156 114.515625 C 102.859375 118.300781 97.878906 119.558594 95.335938 119.25 C 94.746094 119.175781 93.972656 118.980469 93.652344 118.457031 Z M 86.820312 113.019531 C 86.503906 112.445312 86.425781 111.945312 86.550781 111.457031 C 90.429688 111.269531 95.605469 110.171875 101.332031 107.933594 C 102.039062 108.875 102.878906 109.792969 103.839844 110.675781 C 97.332031 113.347656 91.703125 114.34375 88.542969 113.804688 C 87.652344 113.652344 87.011719 113.359375 86.820312 113.019531 Z M 80.910156 108.308594 C 80.863281 108.210938 80.835938 108.121094 80.800781 108.027344 C 85.554688 107.855469 91.863281 106.308594 98.945312 103.226562 C 99.21875 104.222656 99.632812 105.210938 100.183594 106.183594 C 92.652344 109.085938 86.09375 109.988281 82.625 109.203125 C 81.726562 109 81.085938 108.664062 80.910156 108.308594 Z M 65.507812 94.96875 C 65.402344 94.1875 65.570312 93.726562 65.777344 93.433594 C 68.90625 94.21875 72.863281 94.730469 77.566406 94.730469 C 82.375 94.730469 87.957031 94.195312 94.199219 92.882812 C 95.113281 93.851562 95.914062 94.800781 96.566406 95.710938 C 81.871094 100.007812 71.175781 98.988281 67.207031 96.785156 C 66.195312 96.222656 65.59375 95.578125 65.507812 94.96875 Z M 59.054688 87.132812 C 59.042969 86.398438 59.242188 85.984375 59.460938 85.726562 C 63.433594 87.441406 69.027344 88.847656 76.679688 88.847656 C 79.007812 88.847656 81.527344 88.714844 84.246094 88.421875 C 86.589844 89.058594 88.96875 89.628906 91.378906 90.121094 C 91.753906 90.464844 92.121094 90.804688 92.476562 91.144531 C 75.910156 94.367188 64.371094 91.910156 60.496094 89.09375 C 59.578125 88.425781 59.066406 87.730469 59.054688 87.132812 Z M 50.976562 74.445312 C 51.003906 74.265625 51.050781 74.105469 51.097656 73.945312 C 57.8125 78.394531 67.59375 83.203125 78.621094 86.757812 C 63.210938 87.1875 56.046875 81.859375 53.902344 79.835938 C 51.480469 77.550781 50.8125 75.503906 50.976562 74.445312 Z M 43.582031 63.414062 C 43.800781 62.554688 44.242188 61.964844 44.925781 61.605469 C 45.101562 61.515625 45.292969 61.445312 45.492188 61.382812 C 53.347656 68.328125 66.167969 76.539062 80.664062 81.679688 C 83.242188 83.503906 85.8125 85.425781 88.167969 87.351562 C 67.667969 82.492188 49.648438 72.222656 44.707031 65.96875 C 43.492188 64.429688 43.515625 63.667969 43.582031 63.414062 Z M 39.285156 49.726562 C 39.652344 48.652344 40.117188 48.015625 40.667969 47.820312 C 55.347656 63.507812 73.546875 74.691406 86.089844 81.257812 C 64.996094 74.898438 45.886719 61.070312 40.53125 53.097656 C 39.054688 50.902344 39.203125 49.960938 39.285156 49.726562 Z M 37.28125 33.867188 C 37.320312 33.761719 37.417969 33.515625 37.539062 33.492188 C 37.667969 33.472656 38.882812 33.378906 42.269531 37.417969 C 67.230469 66.132812 102.988281 80.527344 103.402344 80.6875 L 122.191406 86.9375 C 122.9375 87.1875 123.636719 87.554688 124.28125 88.015625 C 123.980469 90.511719 123.761719 93.035156 123.621094 95.53125 C 122.554688 94.066406 121.082031 92.957031 119.410156 92.382812 L 101.652344 86.300781 C 101.289062 86.160156 65.113281 72.050781 40.507812 44.636719 C 38.144531 41.933594 36.566406 35.910156 37.28125 33.867188 Z M 149.964844 55.289062 C 150.109375 55.320312 150.261719 55.320312 150.40625 55.289062 C 150.8125 55.207031 160.425781 53.34375 167.433594 64.972656 C 171.539062 71.78125 173.976562 84.078125 174.625 95.761719 C 171.488281 93.800781 168.335938 92.878906 166.953125 92.542969 C 166.671875 89.964844 166.101562 86.761719 165.054688 82.875 C 165.664062 81.199219 165.996094 79.386719 165.996094 77.5 C 165.996094 68.773438 134.378906 68.773438 134.378906 77.5 C 134.378906 79.386719 134.710938 81.195312 135.320312 82.875 C 134.191406 87.066406 133.617188 90.464844 133.359375 93.140625 C 131.429688 94.015625 128.582031 95.570312 125.640625 98.097656 C 126.082031 85.75 128.5625 72.238281 132.941406 64.972656 C 139.949219 53.34375 149.5625 55.207031 149.964844 55.289062 Z M 150.1875 110.683594 C 145.941406 108.8125 137.210938 101.609375 135.597656 100.265625 C 135.382812 99.265625 134.800781 95.421875 136.261719 88.082031 C 136.167969 88.003906 136.167969 87.941406 136.300781 87.902344 C 136.433594 87.238281 136.585938 86.546875 136.753906 85.824219 C 137.191406 86.527344 137.679688 87.1875 138.214844 87.808594 C 141.582031 87.414062 142.875 85.222656 144.09375 83.800781 C 145.46875 82.195312 148.4375 82.476562 148.4375 82.476562 C 150.09375 83.035156 149.367188 85.636719 149.367188 85.636719 C 149.367188 85.636719 146.847656 85.636719 144.09375 87.925781 C 142.910156 88.914062 140.890625 89.023438 139.1875 88.839844 C 142.035156 91.597656 145.914062 93.296875 150.1875 93.296875 C 154.464844 93.296875 158.34375 91.597656 161.1875 88.839844 C 159.488281 89.023438 157.464844 88.914062 156.285156 87.925781 C 153.527344 85.636719 151.007812 85.636719 151.007812 85.636719 C 151.007812 85.636719 150.28125 83.035156 151.9375 82.476562 C 151.9375 82.476562 154.910156 82.195312 156.285156 83.800781 C 157.503906 85.222656 158.792969 87.414062 162.160156 87.808594 C 162.699219 87.1875 163.1875 86.527344 163.621094 85.824219 C 163.792969 86.546875 163.945312 87.242188 164.078125 87.902344 C 164.207031 87.941406 164.210938 88.003906 164.113281 88.082031 C 165.578125 95.433594 164.996094 99.273438 164.78125 100.265625 C 163.167969 101.609375 154.4375 108.808594 150.1875 110.683594 Z M 167.140625 94.777344 C 167.40625 94.851562 167.707031 94.945312 168.03125 95.050781 C 167.894531 95.753906 167.609375 97.085938 167.101562 98.945312 C 167.195312 97.929688 167.242188 96.550781 167.140625 94.777344 Z M 115.140625 114.855469 C 112.003906 113.808594 109.070312 112.277344 106.554688 110.308594 C 102.707031 107.292969 100.585938 103.777344 100.585938 100.402344 C 100.585938 95.613281 94.148438 89.285156 86.863281 83.65625 C 89.414062 84.371094 92 84.976562 94.605469 85.457031 C 98.488281 87.253906 100.855469 88.175781 100.957031 88.214844 L 118.746094 94.308594 C 120.453125 94.894531 121.894531 96.222656 122.699219 97.957031 L 123.46875 99.609375 C 123.464844 99.792969 123.457031 99.980469 123.457031 100.164062 C 120.140625 103.582031 116.976562 108.339844 115.140625 114.855469 Z M 181.628906 94.308594 L 199.457031 88.199219 C 199.550781 88.164062 201.90625 87.246094 205.777344 85.457031 C 208.378906 84.976562 210.964844 84.371094 213.515625 83.65625 C 206.230469 89.285156 199.789062 95.613281 199.789062 100.402344 C 199.789062 103.777344 197.671875 107.292969 193.824219 110.308594 C 191.308594 112.277344 188.371094 113.808594 185.234375 114.855469 C 184.011719 110.519531 182.207031 106.960938 180.152344 104.0625 C 180.472656 103.339844 180.671875 102.871094 180.746094 102.703125 C 180.875 102.394531 180.855469 102.042969 180.683594 101.753906 C 179.835938 100.316406 178.785156 99.085938 177.640625 98.039062 L 177.679688 97.957031 C 178.484375 96.222656 179.925781 94.894531 181.628906 94.308594 Z M 77.894531 100.734375 C 83.226562 100.734375 89.9375 99.835938 97.691406 97.507812 C 98.238281 98.546875 98.550781 99.523438 98.550781 100.402344 C 98.550781 100.671875 98.5625 100.945312 98.585938 101.214844 C 87.902344 105.949219 79.738281 106.683594 76.132812 105.542969 C 75.101562 105.21875 74.433594 104.738281 74.246094 104.1875 C 73.914062 103.195312 74.164062 102.65625 74.382812 102.332031 C 74.902344 101.566406 76.003906 101.054688 77.136719 100.726562 C 77.390625 100.730469 77.640625 100.734375 77.894531 100.734375 Z M 107.535156 123.820312 C 109.492188 122.972656 111.671875 121.769531 114.007812 120.207031 C 113.914062 120.851562 113.832031 121.503906 113.761719 122.175781 L 109.121094 124.902344 C 108.679688 124.835938 108.246094 124.683594 107.929688 124.355469 C 107.761719 124.179688 107.636719 124 107.535156 123.820312 Z M 162.917969 104.496094 C 164.605469 103.15625 165.867188 102.101562 166.273438 101.765625 C 162.820312 112.785156 153.515625 134.796875 130.128906 157.304688 L 131.105469 158.316406 C 161.410156 129.148438 168.324219 100.722656 169.371094 95.527344 C 172.25 96.628906 176.222656 98.71875 178.589844 102.375 C 176.234375 107.722656 155.140625 154.398438 129.085938 171.3125 L 127.246094 157.511719 C 145.902344 139.929688 157.34375 117.535156 162.917969 104.496094 Z M 225.996094 102.332031 C 226.214844 102.65625 226.464844 103.199219 226.128906 104.1875 C 225.945312 104.738281 225.273438 105.21875 224.242188 105.542969 C 220.640625 106.683594 212.472656 105.949219 201.792969 101.214844 C 201.816406 100.945312 201.828125 100.671875 201.828125 100.402344 C 201.828125 99.523438 202.140625 98.546875 202.683594 97.507812 C 210.441406 99.835938 217.148438 100.734375 222.480469 100.734375 C 222.738281 100.734375 222.988281 100.730469 223.238281 100.726562 C 224.371094 101.054688 225.472656 101.566406 225.996094 102.332031 Z M 259.878906 44.625 C 235.265625 72.050781 199.089844 86.160156 198.761719 86.285156 L 180.96875 92.382812 C 179.296875 92.957031 177.824219 94.066406 176.753906 95.53125 C 176.617188 93.035156 176.398438 90.511719 176.097656 88.015625 C 176.738281 87.554688 177.441406 87.1875 178.1875 86.9375 L 197.03125 80.667969 C 197.390625 80.527344 233.148438 66.132812 258.121094 37.402344 C 261.492188 33.378906 262.710938 33.472656 262.835938 33.492188 C 262.960938 33.511719 263.058594 33.761719 263.09375 33.867188 C 263.808594 35.910156 262.230469 41.933594 259.878906 44.625 Z M 259.878906 44.625 " fill-opacity="1" fill-rule="nonzero"/></svg>