<svg xmlns="http://www.w3.org/2000/svg" xmlns:xlink="http://www.w3.org/1999/xlink" width="400" zoomAndPan="magnify" viewBox="0 0 300 299.999988" height="400" preserveAspectRatio="xMidYMid meet" version="1.0"><defs><clipPath id="id1"><path d="M 21.9375 84 L 278.4375 84 L 278.4375 300 L 21.9375 300 Z M 21.9375 84 " clip-rule="nonzero"/></clipPath></defs><g clip-path="url(#id1)"><path fill="#7e7f80" d="M 248.8125 84.910156 C 248.039062 85.359375 247.242188 85.769531 246.425781 86.136719 C 265.058594 109.921875 275.78125 142.851562 275.78125 178.152344 C 275.78125 230.792969 251.109375 278.601562 214.34375 297.253906 L 147.027344 297.253906 C 131.589844 289.421875 117.859375 276.238281 107.300781 259.105469 C 107.046875 258.699219 106.601562 258.460938 106.113281 258.480469 C 104.859375 258.539062 103.703125 258.5625 102.574219 258.5625 C 59.574219 258.5625 24.59375 223.632812 24.59375 180.695312 C 24.59375 143.789062 50.4375 112.796875 85.007812 104.820312 L 85.007812 102.113281 C 48.96875 110.140625 21.945312 142.324219 21.945312 180.695312 C 21.945312 225.089844 58.117188 261.203125 102.574219 261.203125 C 103.503906 261.203125 104.453125 261.1875 105.457031 261.152344 C 116.28125 278.488281 130.328125 291.820312 146.113281 299.753906 C 146.300781 299.847656 146.503906 299.894531 146.707031 299.894531 L 214.65625 299.894531 C 214.867188 299.894531 215.066406 299.847656 215.253906 299.753906 C 233.660156 290.507812 249.386719 274.257812 260.734375 252.765625 C 272.3125 230.84375 278.425781 205.042969 278.425781 178.152344 C 278.425781 142.46875 267.613281 109.128906 248.8125 84.910156 " fill-opacity="1" fill-rule="nonzero"/></g><path fill="#7e7f80" d="M 36.726562 180.695312 C 36.726562 215.210938 63.730469 244.023438 98.199219 246.285156 L 98.285156 246.285156 C 98.71875 246.285156 99.125 246.078125 99.375 245.714844 C 99.640625 245.335938 99.683594 244.84375 99.492188 244.417969 C 90.394531 224.5 85.585938 201.582031 85.585938 178.152344 C 85.585938 173.058594 85.824219 167.984375 86.273438 162.949219 C 85.484375 162.03125 85.007812 160.84375 85.007812 159.542969 L 85.007812 151.601562 C 83.640625 160.308594 82.941406 169.214844 82.941406 178.152344 C 82.941406 201.160156 87.507812 223.691406 96.167969 243.464844 C 64.144531 240.238281 39.375 213.085938 39.375 180.695312 C 39.375 152.023438 58.34375 127.65625 85.007812 120.046875 L 85.007812 117.3125 C 56.84375 125 36.726562 150.558594 36.726562 180.695312 " fill-opacity="1" fill-rule="nonzero"/><path fill="#7e7f80" d="M 107.554688 246.785156 C 117.917969 266.417969 132.28125 281.257812 149.097656 289.707031 C 149.277344 289.796875 149.484375 289.847656 149.6875 289.847656 L 211.675781 289.847656 C 211.882812 289.847656 212.085938 289.796875 212.273438 289.707031 C 229.085938 281.257812 243.449219 266.417969 253.816406 246.785156 C 264.382812 226.773438 269.96875 203.21875 269.96875 178.667969 C 269.96875 143.453125 258.433594 110.734375 238.613281 88.335938 C 237.507812 88.472656 236.386719 88.550781 235.25 88.550781 C 255.492188 110.488281 267.324219 143.273438 267.324219 178.667969 C 267.324219 226.636719 244.847656 270.203125 211.363281 287.203125 L 150.007812 287.203125 C 116.519531 270.203125 94.042969 226.636719 94.042969 178.667969 C 94.042969 178.078125 94.058594 177.492188 94.066406 176.902344 C 92.699219 175.957031 91.800781 174.382812 91.800781 172.59375 L 91.800781 167.328125 C 91.535156 171.070312 91.398438 174.855469 91.398438 178.667969 C 91.398438 203.21875 96.984375 226.773438 107.554688 246.785156 " fill-opacity="1" fill-rule="nonzero"/><path fill="#7e7f80" d="M 129.960938 84.613281 C 129.566406 83.753906 129.210938 82.875 128.90625 81.96875 C 127.445312 83.351562 126.019531 84.789062 124.632812 86.269531 C 124.804688 87.363281 124.898438 88.464844 124.898438 89.582031 C 124.898438 89.6875 124.890625 89.792969 124.886719 89.902344 C 126.523438 88.0625 128.214844 86.300781 129.960938 84.613281 " fill-opacity="1" fill-rule="nonzero"/><path fill="#7e7f80" d="M 215.363281 79.941406 C 215.070312 80.25 214.769531 80.554688 214.46875 80.847656 L 216.261719 80.847656 C 215.957031 80.554688 215.652344 80.25 215.363281 79.941406 " fill-opacity="1" fill-rule="nonzero"/><path fill="#7e7f80" d="M 107.757812 110.09375 C 105.769531 113.820312 103.941406 117.6875 102.300781 121.683594 L 102.300781 129.089844 C 104.78125 122.050781 107.796875 115.367188 111.296875 109.121094 C 110.164062 109.550781 108.976562 109.871094 107.757812 110.09375 " fill-opacity="1" fill-rule="nonzero"/><path fill="#7e7f80" d="M 132.386719 106.984375 C 136.015625 106.984375 138.96875 109.929688 138.96875 113.554688 C 138.96875 117.179688 136.015625 120.128906 132.386719 120.128906 C 128.753906 120.128906 125.800781 117.179688 125.800781 113.554688 C 125.800781 109.929688 128.753906 106.984375 132.386719 106.984375 Z M 132.386719 122.769531 C 137.476562 122.769531 141.613281 118.636719 141.613281 113.554688 C 141.613281 108.476562 137.476562 104.339844 132.386719 104.339844 C 127.296875 104.339844 123.15625 108.476562 123.15625 113.554688 C 123.15625 118.636719 127.296875 122.769531 132.386719 122.769531 " fill-opacity="1" fill-rule="nonzero"/><path fill="#7e7f80" d="M 159.144531 114.875 C 162.773438 114.875 165.726562 117.824219 165.726562 121.449219 C 165.726562 125.074219 162.773438 128.019531 159.144531 128.019531 C 155.511719 128.019531 152.558594 125.074219 152.558594 121.449219 C 152.558594 117.824219 155.511719 114.875 159.144531 114.875 Z M 159.144531 130.664062 C 164.230469 130.664062 168.371094 126.527344 168.371094 121.449219 C 168.371094 116.367188 164.230469 112.234375 159.144531 112.234375 C 154.054688 112.234375 149.914062 116.367188 149.914062 121.449219 C 149.914062 126.527344 154.054688 130.664062 159.144531 130.664062 " fill-opacity="1" fill-rule="nonzero"/><path fill="#7e7f80" d="M 129.472656 150.839844 C 135.679688 150.839844 140.730469 155.882812 140.730469 162.078125 C 140.730469 168.273438 135.679688 173.316406 129.472656 173.316406 C 123.269531 173.316406 118.21875 168.273438 118.21875 162.078125 C 118.21875 155.882812 123.269531 150.839844 129.472656 150.839844 Z M 129.472656 175.960938 C 137.140625 175.960938 143.378906 169.734375 143.378906 162.078125 C 143.378906 154.425781 137.140625 148.199219 129.472656 148.199219 C 121.808594 148.199219 115.570312 154.425781 115.570312 162.078125 C 115.570312 169.734375 121.808594 175.960938 129.472656 175.960938 " fill-opacity="1" fill-rule="nonzero"/><path fill="#7e7f80" d="M 164.003906 167.90625 C 160.789062 167.90625 158.167969 165.292969 158.167969 162.078125 C 158.167969 158.863281 160.789062 156.25 164.003906 156.25 C 167.222656 156.25 169.84375 158.863281 169.84375 162.078125 C 169.84375 165.292969 167.222656 167.90625 164.003906 167.90625 Z M 155.523438 162.078125 C 155.523438 166.75 159.328125 170.546875 164.003906 170.546875 C 168.683594 170.546875 172.488281 166.75 172.488281 162.078125 C 172.488281 157.410156 168.683594 153.609375 164.003906 153.609375 C 159.328125 153.609375 155.523438 157.410156 155.523438 162.078125 " fill-opacity="1" fill-rule="nonzero"/><path fill="#7e7f80" d="M 132.382812 206.421875 C 129.164062 206.421875 126.550781 203.808594 126.550781 200.59375 C 126.550781 197.378906 129.164062 194.765625 132.382812 194.765625 C 135.605469 194.765625 138.222656 197.378906 138.222656 200.59375 C 138.222656 203.808594 135.605469 206.421875 132.382812 206.421875 Z M 140.867188 200.59375 C 140.867188 195.925781 137.0625 192.125 132.382812 192.125 C 127.707031 192.125 123.902344 195.925781 123.902344 200.59375 C 123.902344 205.261719 127.707031 209.066406 132.382812 209.066406 C 137.0625 209.066406 140.867188 205.261719 140.867188 200.59375 " fill-opacity="1" fill-rule="nonzero"/><path fill="#7e7f80" d="M 164.007812 194.765625 C 167.222656 194.765625 169.84375 197.378906 169.84375 200.59375 C 169.84375 203.808594 167.222656 206.421875 164.007812 206.421875 C 160.789062 206.421875 158.167969 203.808594 158.167969 200.59375 C 158.167969 197.378906 160.789062 194.765625 164.007812 194.765625 Z M 164.007812 209.066406 C 168.683594 209.066406 172.488281 205.265625 172.488281 200.59375 C 172.488281 195.925781 168.683594 192.125 164.007812 192.125 C 159.328125 192.125 155.523438 195.925781 155.523438 200.59375 C 155.523438 205.265625 159.328125 209.066406 164.007812 209.066406 " fill-opacity="1" fill-rule="nonzero"/><path fill="#7e7f80" d="M 109.734375 209.066406 C 112.953125 209.066406 115.570312 211.679688 115.570312 214.894531 C 115.570312 218.105469 112.953125 220.722656 109.734375 220.722656 C 106.515625 220.722656 103.898438 218.105469 103.898438 214.894531 C 103.898438 211.679688 106.515625 209.066406 109.734375 209.066406 Z M 109.734375 223.363281 C 114.414062 223.363281 118.21875 219.5625 118.21875 214.894531 C 118.21875 210.21875 114.414062 206.421875 109.734375 206.421875 C 105.058594 206.421875 101.253906 210.21875 101.253906 214.894531 C 101.253906 219.5625 105.058594 223.363281 109.734375 223.363281 " fill-opacity="1" fill-rule="nonzero"/><path fill="#7e7f80" d="M 164.003906 275.179688 C 160.789062 275.179688 158.167969 272.570312 158.167969 269.355469 C 158.167969 266.140625 160.789062 263.527344 164.003906 263.527344 C 167.222656 263.527344 169.84375 266.140625 169.84375 269.355469 C 169.84375 272.570312 167.222656 275.179688 164.003906 275.179688 Z M 164.003906 260.886719 C 159.328125 260.886719 155.523438 264.683594 155.523438 269.355469 C 155.523438 274.023438 159.328125 277.824219 164.003906 277.824219 C 168.683594 277.824219 172.492188 274.023438 172.492188 269.355469 C 172.492188 264.683594 168.683594 260.886719 164.003906 260.886719 " fill-opacity="1" fill-rule="nonzero"/><path fill="#7e7f80" d="M 144.078125 237.324219 C 147.292969 237.324219 149.914062 239.9375 149.914062 243.152344 C 149.914062 246.367188 147.292969 248.976562 144.078125 248.976562 C 140.863281 248.976562 138.242188 246.367188 138.242188 243.152344 C 138.242188 239.9375 140.863281 237.324219 144.078125 237.324219 Z M 135.597656 243.152344 C 135.597656 247.820312 139.402344 251.621094 144.078125 251.621094 C 148.753906 251.621094 152.558594 247.820312 152.558594 243.152344 C 152.558594 238.480469 148.753906 234.683594 144.078125 234.683594 C 139.402344 234.683594 135.597656 238.480469 135.597656 243.152344 " fill-opacity="1" fill-rule="nonzero"/><path fill="#7e7f80" d="M 87.527344 97.371094 C 86.363281 94.921875 85.773438 92.300781 85.773438 89.582031 C 85.773438 85.882812 86.882812 82.316406 88.976562 79.277344 C 89.324219 78.777344 89.277344 78.105469 88.875 77.652344 C 84.882812 73.160156 82.683594 67.378906 82.683594 61.375 C 82.683594 47.851562 93.707031 36.84375 107.253906 36.84375 C 109.058594 36.84375 110.878906 37.046875 112.667969 37.445312 C 113.207031 37.570312 113.765625 37.339844 114.070312 36.875 C 118.625 29.832031 126.34375 25.625 134.722656 25.625 C 137.660156 25.625 140.542969 26.140625 143.28125 27.15625 C 143.675781 27.304688 144.117188 27.253906 144.46875 27.023438 C 144.820312 26.789062 145.042969 26.402344 145.0625 25.984375 C 145.695312 12.902344 156.472656 2.65625 169.601562 2.65625 C 179.199219 2.65625 187.976562 8.300781 191.960938 17.035156 C 192.136719 17.417969 192.488281 17.695312 192.902344 17.78125 C 193.320312 17.863281 193.75 17.742188 194.058594 17.457031 C 198.605469 13.289062 204.511719 10.988281 210.679688 10.988281 C 224.226562 10.988281 235.25 21.996094 235.25 35.558594 C 235.25 36.261719 235.800781 36.839844 236.503906 36.875 C 249.570312 37.539062 259.804688 48.300781 259.804688 61.375 C 259.804688 74.902344 248.78125 85.910156 235.234375 85.910156 C 227.941406 85.910156 221.066406 82.695312 216.378906 77.097656 C 215.875 76.496094 214.851562 76.496094 214.347656 77.097656 C 209.660156 82.695312 202.789062 85.910156 195.492188 85.910156 C 189.867188 85.910156 184.367188 83.957031 180.007812 80.417969 C 179.671875 80.148438 179.222656 80.058594 178.808594 80.175781 C 178.390625 80.292969 178.058594 80.609375 177.921875 81.019531 C 174.535156 90.976562 165.1875 97.664062 154.65625 97.664062 C 141.90625 97.664062 131.390625 88.117188 130.203125 75.457031 C 130.148438 74.898438 129.75 74.433594 129.207031 74.296875 C 128.65625 74.164062 128.089844 74.382812 127.78125 74.851562 C 126.09375 77.40625 123.96875 79.605469 121.460938 81.382812 C 120.96875 81.734375 120.773438 82.375 120.996094 82.945312 C 121.828125 85.0625 122.253906 87.296875 122.253906 89.582031 C 122.253906 99.625 114.070312 107.789062 104.015625 107.789062 C 103.070312 107.789062 102.117188 107.71875 101.179688 107.574219 C 100.796875 107.511719 100.410156 107.621094 100.117188 107.875 C 99.824219 108.125 99.652344 108.492188 99.652344 108.878906 L 99.652344 172.59375 C 99.652344 174.03125 98.484375 175.195312 97.050781 175.195312 C 95.617188 175.195312 94.449219 174.03125 94.449219 172.59375 L 94.449219 162.203125 C 94.449219 161.660156 94.113281 161.171875 93.605469 160.972656 C 93.453125 160.910156 93.285156 160.878906 93.125 160.878906 C 92.761719 160.878906 92.410156 161.027344 92.15625 161.304688 C 91.652344 161.84375 90.976562 162.140625 90.253906 162.140625 C 88.820312 162.140625 87.652344 160.972656 87.652344 159.542969 L 87.652344 97.933594 C 87.652344 97.738281 87.609375 97.546875 87.527344 97.371094 Z M 85.007812 104.820312 L 85.007812 159.542969 C 85.007812 160.84375 85.484375 162.03125 86.273438 162.949219 C 87.238281 164.070312 88.664062 164.78125 90.253906 164.78125 C 90.789062 164.78125 91.308594 164.703125 91.800781 164.550781 L 91.800781 172.59375 C 91.800781 174.382812 92.699219 175.957031 94.066406 176.902344 C 94.914062 177.492188 95.941406 177.839844 97.050781 177.839844 C 99.945312 177.839844 102.300781 175.488281 102.300781 172.59375 L 102.300781 110.363281 C 102.871094 110.410156 103.445312 110.433594 104.015625 110.433594 C 105.289062 110.433594 106.542969 110.3125 107.757812 110.09375 C 108.976562 109.871094 110.164062 109.550781 111.296875 109.121094 C 119.132812 106.203125 124.753906 98.703125 124.886719 89.902344 C 124.890625 89.792969 124.898438 89.6875 124.898438 89.582031 C 124.898438 88.464844 124.804688 87.363281 124.632812 86.269531 C 124.449219 85.140625 124.175781 84.027344 123.808594 82.9375 C 125.375 81.738281 126.792969 80.386719 128.054688 78.890625 C 128.277344 79.945312 128.566406 80.96875 128.90625 81.96875 C 129.210938 82.875 129.566406 83.753906 129.960938 84.613281 C 134.289062 93.972656 143.730469 100.308594 154.65625 100.308594 C 165.710938 100.308594 175.59375 93.652344 179.785156 83.566406 C 184.359375 86.792969 189.867188 88.550781 195.492188 88.550781 C 202.632812 88.550781 209.402344 85.773438 214.46875 80.847656 C 214.769531 80.554688 215.070312 80.25 215.363281 79.941406 C 215.652344 80.25 215.957031 80.554688 216.261719 80.847656 C 221.320312 85.773438 228.09375 88.550781 235.234375 88.550781 L 235.25 88.550781 C 236.386719 88.550781 237.507812 88.472656 238.613281 88.335938 C 241.367188 87.992188 243.988281 87.242188 246.425781 86.136719 C 247.242188 85.769531 248.039062 85.359375 248.8125 84.910156 C 256.953125 80.210938 262.449219 71.425781 262.449219 61.375 C 262.449219 47.304688 251.75 35.65625 237.871094 34.328125 C 237.238281 19.894531 225.289062 8.347656 210.679688 8.347656 C 204.429688 8.347656 198.425781 10.476562 193.59375 14.371094 C 188.886719 5.59375 179.648438 0.015625 169.601562 0.015625 C 155.644531 0.015625 144.082031 10.472656 142.558594 24.128906 C 140.019531 23.367188 137.390625 22.984375 134.722656 22.984375 C 125.746094 22.984375 117.453125 27.34375 112.355469 34.683594 C 110.664062 34.363281 108.953125 34.203125 107.253906 34.203125 C 92.246094 34.203125 80.039062 46.390625 80.039062 61.375 C 80.039062 67.6875 82.234375 73.777344 86.238281 78.636719 C 84.199219 81.921875 83.128906 85.6875 83.128906 89.582031 C 83.128906 92.597656 83.757812 95.5 85.007812 98.226562 L 85.007812 104.820312 " fill-opacity="1" fill-rule="nonzero"/></svg>