<svg xmlns="http://www.w3.org/2000/svg" xmlns:xlink="http://www.w3.org/1999/xlink" width="400" zoomAndPan="magnify" viewBox="0 0 300 74.999997" height="100" preserveAspectRatio="xMidYMid meet" version="1.0"><defs><clipPath id="id1"><path d="M 5.429688 0.121094 L 147 0.121094 L 147 74.886719 L 5.429688 74.886719 Z M 5.429688 0.121094 " clip-rule="nonzero"/></clipPath><clipPath id="id2"><path d="M 4.5 47 L 8 47 L 8 51 L 4.5 51 Z M 4.5 47 " clip-rule="nonzero"/></clipPath><clipPath id="id3"><path d="M 151.1875 0.113281 L 292.792969 0.113281 L 292.792969 74.878906 L 151.1875 74.878906 Z M 151.1875 0.113281 " clip-rule="nonzero"/></clipPath><clipPath id="id4"><path d="M 266 29 L 295.757812 29 L 295.757812 49 L 266 49 Z M 266 29 " clip-rule="nonzero"/></clipPath><clipPath id="id5"><path d="M 150.257812 24 L 154 24 L 154 28 L 150.257812 28 Z M 150.257812 24 " clip-rule="nonzero"/></clipPath></defs><g clip-path="url(#id1)"><path fill="#7e7f80" d="M 6.828125 44.527344 C 14.558594 52.632812 20.652344 34.179688 24.4375 29.722656 C 28.082031 25.433594 33.28125 25.132812 36.828125 29.59375 C 41.632812 35.648438 40.804688 43.566406 41.382812 50.738281 C 41.59375 53.320312 42 56.257812 44.726562 57.398438 C 47.226562 58.441406 50.113281 56.839844 52.132812 55.503906 C 56.636719 52.515625 58.542969 47.746094 58.308594 42.480469 C 57.964844 34.839844 53.109375 28.171875 52.472656 20.542969 C 51.851562 13.078125 57.667969 6.953125 63.484375 3.191406 C 68.792969 -0.238281 75.441406 -0.9375 81.148438 1.824219 C 87.347656 4.820312 90.121094 11.789062 90.917969 18.214844 C 92.082031 27.582031 87.402344 36.914062 84.820312 45.660156 C 82.28125 54.269531 82.050781 65.21875 90.296875 70.855469 C 95.953125 74.71875 103.644531 73.59375 109.410156 70.664062 C 117.476562 66.566406 121.996094 57.992188 121.570312 49.058594 C 121.164062 40.53125 116.875 32.789062 117.636719 24.101562 C 118.191406 17.785156 121.898438 10.96875 128.277344 9.101562 C 133.476562 7.582031 138.476562 11.390625 140.3125 16.082031 C 141.625 19.4375 141.828125 22.429688 141.269531 25.949219 C 140.871094 28.464844 140.328125 30.921875 140.824219 33.464844 C 141.359375 36.214844 145.257812 36.863281 145.636719 33.890625 C 145.800781 32.59375 145.460938 31.328125 144.96875 30.144531 C 144.578125 29.214844 146.089844 28.8125 146.472656 29.730469 C 147.742188 32.769531 146.449219 41.628906 141.597656 37.261719 C 139.011719 34.933594 138.84375 32.15625 139.234375 28.828125 C 139.828125 23.789062 140.636719 19.816406 138.097656 15.109375 C 136.230469 11.644531 132.527344 9.800781 128.691406 10.613281 C 123.882812 11.628906 121.101562 16.726562 119.804688 21.007812 C 117.085938 29.964844 121.984375 39.175781 123.042969 48.003906 C 124.722656 62.039062 113.3125 74.332031 99.519531 74.871094 C 94.207031 75.078125 88.625 72.8125 85.472656 68.421875 C 80.789062 61.898438 81.070312 53.867188 82.992188 46.40625 C 85.652344 36.066406 91.105469 26.210938 88.863281 15.230469 C 87.089844 6.53125 79.769531 0.371094 70.792969 1.921875 C 62 3.441406 53.339844 12.242188 54.105469 21.398438 C 54.742188 29.03125 59.5625 35.632812 59.910156 43.402344 C 60.222656 50.398438 55.613281 56.328125 49.222656 58.761719 C 41.917969 61.542969 40.011719 54.296875 39.6875 48.804688 C 39.445312 44.730469 39.605469 40.871094 38.523438 36.894531 C 37.4375 32.898438 34.695312 26.726562 29.558594 27.980469 C 25.25 29.03125 23.078125 34.410156 21.199219 37.867188 C 19.445312 41.089844 17.601562 44.367188 14.789062 46.789062 C 11.671875 49.472656 8.3125 48.347656 5.726562 45.632812 C 5.03125 44.902344 6.132812 43.796875 6.828125 44.527344 " fill-opacity="1" fill-rule="nonzero"/></g><path fill="#7e7f80" d="M 102.363281 59.753906 C 97.675781 60.101562 95.128906 56.316406 93.898438 52.226562 C 93.703125 51.566406 94.617188 51.230469 94.96875 51.773438 C 96.199219 53.667969 97.226562 55.726562 99.050781 57.136719 C 101.875 59.320312 106.132812 56.652344 108.199219 54.628906 C 113.039062 49.894531 111.640625 39.925781 111.664062 33.804688 C 111.691406 25.335938 112.800781 13.132812 120.519531 7.863281 C 120.972656 7.554688 121.429688 8.21875 121.082031 8.589844 C 109.898438 20.613281 116.265625 36.875 112.292969 51.105469 C 111.09375 55.40625 106.960938 59.414062 102.363281 59.753906 " fill-opacity="1" fill-rule="nonzero"/><path fill="#7e7f80" d="M 75.171875 46.863281 C 75.289062 41.601562 76.539062 36.898438 77.730469 31.796875 C 78.648438 27.867188 77.1875 18.265625 70.96875 21.03125 C 68.226562 22.253906 66.515625 25.410156 64.980469 27.824219 C 64.664062 28.320312 63.867188 28.003906 64.023438 27.417969 C 65.128906 23.308594 68.699219 18.632812 73.347656 18.769531 C 79.59375 18.949219 80.230469 27.914062 79.375 32.253906 C 78.664062 35.855469 77.390625 39.226562 77.019531 42.910156 C 76.738281 45.710938 76.683594 48.527344 76.746094 51.339844 C 76.886719 57.445312 77.679688 66.148438 83.542969 69.59375 C 84.15625 69.953125 83.621094 70.828125 82.996094 70.53125 C 75.058594 66.785156 75.007812 54.265625 75.171875 46.863281 " fill-opacity="1" fill-rule="nonzero"/><path fill="#7e7f80" d="M 51.195312 12.300781 C 50.324219 18.796875 49.5 24.59375 51.476562 31.003906 C 52.425781 34.085938 53.195312 37.183594 53.554688 40.390625 C 54.179688 45.992188 52.203125 52.738281 45.527344 52.867188 C 45.027344 52.878906 44.746094 52.082031 45.253906 51.867188 C 48.429688 50.511719 50.679688 49.207031 51.636719 45.679688 C 52.511719 42.464844 51.859375 38.90625 51.15625 35.730469 C 50.414062 32.386719 49.257812 29.207031 48.804688 25.792969 C 48.210938 21.316406 48.800781 16.304688 50.265625 12.046875 C 50.476562 11.441406 51.277344 11.699219 51.195312 12.300781 " fill-opacity="1" fill-rule="nonzero"/><path fill="#7e7f80" d="M 32.152344 48.109375 C 33.496094 53.140625 31.019531 57.667969 35.523438 61.726562 C 39.386719 65.203125 45.582031 65.8125 49.5625 62.371094 C 50.109375 61.902344 50.777344 62.601562 50.339844 63.148438 C 46.421875 68.042969 38.902344 66.285156 34.550781 62.988281 C 32.367188 61.335938 30.761719 58.746094 30.621094 55.964844 C 30.460938 52.785156 31.09375 49.5 29.664062 46.515625 C 27.386719 41.761719 23.304688 45.292969 21.019531 47.597656 C 20.457031 48.167969 19.597656 47.449219 19.949219 46.769531 C 23.230469 40.441406 30.34375 41.355469 32.152344 48.109375 " fill-opacity="1" fill-rule="nonzero"/><path fill="#7e7f80" d="M 133.027344 37.402344 C 132.527344 35.082031 132.453125 32.738281 131.511719 30.527344 C 128.816406 24.1875 123.335938 31.109375 121.675781 34.050781 C 121.410156 34.515625 120.695312 34.199219 120.828125 33.691406 C 122.289062 27.964844 128.832031 23.207031 132.789062 29.78125 C 134.949219 33.371094 134.039062 38.023438 136.28125 41.746094 C 140.558594 48.847656 147.683594 41.886719 149.359375 36.863281 C 149.484375 36.492188 150 36.648438 149.933594 37.023438 C 148.988281 42.570312 143.949219 47.792969 138.085938 45.273438 C 135.117188 43.996094 133.652344 40.300781 133.027344 37.402344 " fill-opacity="1" fill-rule="nonzero"/><path fill="#7e7f80" d="M 87.128906 46.9375 C 87.285156 46.636719 87.828125 46.761719 87.789062 47.113281 C 87.0625 53.546875 89.035156 58.371094 94.898438 61.566406 C 100.628906 64.695312 107.878906 63.9375 112.117188 58.804688 C 112.429688 58.425781 113.070312 58.921875 112.796875 59.328125 C 104.796875 71.164062 80.039062 60.652344 87.128906 46.9375 " fill-opacity="1" fill-rule="nonzero"/><path fill="#7e7f80" d="M 91.097656 64.617188 C 90.675781 64.058594 91.542969 63.519531 92.011719 63.914062 C 94.183594 65.75 96.261719 67.347656 98.984375 68.273438 C 102.390625 69.429688 105.371094 68.179688 108.445312 66.804688 C 108.601562 66.738281 108.726562 66.90625 108.621094 67.039062 C 103.980469 73.003906 94.9375 69.726562 91.097656 64.617188 " fill-opacity="1" fill-rule="nonzero"/><path fill="#7e7f80" d="M 140.859375 40.230469 C 141 40.304688 140.875 40.503906 140.734375 40.441406 C 137.136719 38.898438 136.457031 33.957031 135.507812 30.566406 C 134.804688 28.050781 134.191406 25.453125 132.882812 23.171875 C 131.222656 20.277344 129.003906 21.792969 126.613281 22.558594 C 126.226562 22.683594 125.785156 22.183594 126.050781 21.832031 C 129.101562 17.78125 133.273438 20.15625 134.835938 23.972656 C 135.976562 26.773438 136.574219 29.742188 137.285156 32.671875 C 137.824219 34.878906 138.59375 39.078125 140.859375 40.230469 " fill-opacity="1" fill-rule="nonzero"/><path fill="#7e7f80" d="M 123.167969 23.976562 C 123.339844 23.789062 123.71875 23.984375 123.613281 24.238281 C 123.304688 25 122.996094 25.777344 122.714844 26.554688 C 122.667969 26.6875 122.476562 26.699219 122.433594 26.554688 C 122.140625 25.535156 122.472656 24.734375 123.167969 23.976562 " fill-opacity="1" fill-rule="nonzero"/><path fill="#7e7f80" d="M 136.984375 23.226562 C 136.640625 22.503906 136.644531 21.667969 136.386719 20.910156 C 136.109375 20.085938 135.535156 19.308594 135.046875 18.597656 C 134.839844 18.300781 135.226562 18.019531 135.496094 18.148438 C 137.078125 18.902344 138.519531 21.6875 137.289062 23.265625 C 137.214844 23.359375 137.035156 23.332031 136.984375 23.226562 " fill-opacity="1" fill-rule="nonzero"/><path fill="#7e7f80" d="M 126.921875 18.171875 C 125.097656 19.351562 123.839844 21.128906 122.761719 22.972656 C 122.617188 23.214844 122.28125 23.003906 122.390625 22.753906 C 123.328125 20.621094 124.351562 18.445312 126.234375 16.996094 C 128.089844 15.566406 130.710938 15.484375 132.859375 16.121094 C 133.386719 16.28125 133.304688 17.140625 132.726562 17.105469 C 130.625 16.980469 128.746094 16.992188 126.921875 18.171875 " fill-opacity="1" fill-rule="nonzero"/><path fill="#7e7f80" d="M 110.644531 66.351562 C 110.761719 65.8125 111.082031 65.484375 111.539062 65.191406 C 111.726562 65.066406 111.902344 65.300781 111.820312 65.472656 C 111.578125 65.992188 111.496094 66.417969 110.921875 66.628906 C 110.75 66.695312 110.609375 66.507812 110.644531 66.351562 " fill-opacity="1" fill-rule="nonzero"/><path fill="#7e7f80" d="M 113.992188 61.742188 C 116.398438 58.101562 117.757812 54.949219 117.566406 50.460938 C 117.476562 48.332031 116.636719 46.332031 116.457031 44.230469 C 116.265625 41.96875 116.804688 39.859375 117.140625 37.625 C 117.164062 37.464844 117.417969 37.507812 117.417969 37.664062 C 117.40625 40.902344 117.398438 43.679688 118.335938 46.84375 C 118.988281 49.050781 119.097656 51.359375 118.957031 53.640625 C 118.757812 56.871094 117.496094 60.648438 114.582031 62.335938 C 114.222656 62.546875 113.746094 62.117188 113.992188 61.742188 " fill-opacity="1" fill-rule="nonzero"/><path fill="#7e7f80" d="M 62.351562 22.335938 C 62.070312 22.75 61.285156 22.5 61.496094 21.972656 C 64.722656 13.90625 71.457031 9.363281 79.128906 15.207031 C 82.304688 17.628906 83.890625 21.433594 83.96875 25.339844 C 84.019531 27.910156 82.976562 30.601562 82.273438 33.027344 C 81.207031 36.695312 80.742188 40.496094 80.324219 44.285156 C 80.296875 44.554688 79.886719 44.566406 79.898438 44.285156 C 80.027344 40.714844 80.046875 37.457031 80.867188 33.957031 C 81.980469 29.191406 83.632812 24.921875 81.417969 20.160156 C 79.605469 16.257812 74.609375 13.007812 70.304688 13.980469 C 66.515625 14.835938 64.339844 19.433594 62.351562 22.335938 " fill-opacity="1" fill-rule="nonzero"/><path fill="#7e7f80" d="M 60.355469 25.28125 C 60.414062 25.007812 60.789062 25.097656 60.808594 25.34375 C 61.378906 31.808594 63.472656 37.953125 64.113281 44.367188 C 64.558594 48.847656 62.765625 54.710938 58.765625 57.179688 C 58.429688 57.390625 58.019531 56.878906 58.335938 56.625 C 69.070312 47.925781 58.152344 35.761719 60.355469 25.28125 " fill-opacity="1" fill-rule="nonzero"/><path fill="#7e7f80" d="M 54.601562 59.15625 C 55.527344 58.894531 56.234375 58.441406 57.027344 57.917969 C 57.363281 57.695312 57.707031 58.121094 57.546875 58.4375 C 57.027344 59.445312 55.890625 59.824219 54.855469 60.078125 C 54.261719 60.222656 54.011719 59.324219 54.601562 59.15625 " fill-opacity="1" fill-rule="nonzero"/><path fill="#7e7f80" d="M 79.90625 53.511719 C 79.851562 54.046875 79.132812 54.042969 79.074219 53.511719 C 78.890625 51.824219 78.671875 49.992188 79.097656 48.324219 C 79.164062 48.054688 79.566406 48.058594 79.636719 48.324219 C 80.074219 49.976562 80.074219 51.820312 79.90625 53.511719 " fill-opacity="1" fill-rule="nonzero"/><path fill="#7e7f80" d="M 78.492188 8.964844 C 78.925781 9.273438 78.679688 10.011719 78.117188 9.859375 C 72.957031 8.425781 68.917969 8.789062 64.347656 11.777344 C 59.480469 14.964844 56.941406 20.09375 57.480469 25.839844 C 57.503906 26.105469 57.109375 26.195312 56.992188 25.972656 C 54.308594 20.949219 58.957031 14.5 62.644531 11.382812 C 66.699219 7.960938 73.765625 5.550781 78.492188 8.964844 " fill-opacity="1" fill-rule="nonzero"/><path fill="#7e7f80" d="M 85.945312 22.523438 C 86.007812 22.265625 86.414062 22.257812 86.472656 22.523438 C 86.691406 23.476562 86.605469 24.476562 86.414062 25.433594 C 86.351562 25.753906 85.8125 25.765625 85.753906 25.433594 C 85.589844 24.464844 85.703125 23.46875 85.945312 22.523438 " fill-opacity="1" fill-rule="nonzero"/><path fill="#7e7f80" d="M 81.703125 11.65625 C 84.3125 12.59375 87.261719 16.890625 86.335938 19.710938 C 86.214844 20.078125 85.703125 20.085938 85.582031 19.710938 C 85.101562 18.191406 84.976562 16.855469 84.050781 15.484375 C 83.253906 14.300781 81.917969 13.476562 81.292969 12.183594 C 81.167969 11.925781 81.375 11.539062 81.703125 11.65625 " fill-opacity="1" fill-rule="nonzero"/><path fill="#7e7f80" d="M 46.714844 62.382812 C 43.679688 63.332031 40.886719 63.035156 38.460938 60.878906 C 36.421875 59.058594 34.886719 55.363281 35.578125 52.660156 C 35.671875 52.277344 36.191406 52.320312 36.304688 52.660156 C 37.160156 55.164062 37.144531 57.582031 38.851562 59.796875 C 40.707031 62.199219 43.804688 62.550781 46.566406 61.839844 C 46.917969 61.75 47.058594 62.273438 46.714844 62.382812 " fill-opacity="1" fill-rule="nonzero"/><path fill="#7e7f80" d="M 37.585938 50.144531 C 37.554688 50.664062 36.820312 50.660156 36.78125 50.144531 C 36.363281 44.445312 35.984375 35.605469 28.476562 35.605469 C 27.875 35.605469 27.71875 34.664062 28.332031 34.539062 C 36.511719 32.839844 37.941406 44.527344 37.585938 50.144531 " fill-opacity="1" fill-rule="nonzero"/><path fill="#7e7f80" d="M 32.621094 40.5 C 34.242188 42.417969 35.070312 45.296875 34.742188 47.777344 C 34.671875 48.3125 33.960938 48.324219 33.902344 47.777344 C 33.691406 45.820312 33.148438 43.929688 32.164062 42.226562 C 31.625 41.292969 30.832031 40.457031 29.828125 40.035156 C 28.871094 39.640625 27.839844 39.921875 26.859375 40.03125 C 26.324219 40.09375 26.277344 39.382812 26.613281 39.132812 C 28.640625 37.632812 31.167969 38.785156 32.621094 40.5 " fill-opacity="1" fill-rule="nonzero"/><path fill="#7e7f80" d="M 18.296875 48.421875 C 18.851562 47.75 19.785156 48.707031 19.246094 49.371094 C 17.566406 51.445312 11.820312 54.417969 9.804688 51.292969 C 9.65625 51.066406 9.898438 50.789062 10.140625 50.851562 C 12.984375 51.601562 16.351562 50.773438 18.296875 48.421875 " fill-opacity="1" fill-rule="nonzero"/><g clip-path="url(#id2)"><path fill="#7e7f80" d="M 7.636719 49.230469 C 8.238281 49.578125 7.835938 50.605469 7.160156 50.371094 C 6.179688 50.03125 4.773438 49.296875 4.566406 48.167969 C 4.5 47.796875 4.808594 47.359375 5.226562 47.507812 C 6.132812 47.820312 6.796875 48.746094 7.636719 49.230469 " fill-opacity="1" fill-rule="nonzero"/></g><g clip-path="url(#id3)"><path fill="#7e7f80" d="M 152.589844 30.472656 C 160.320312 22.363281 166.410156 40.820312 170.195312 45.273438 C 173.84375 49.566406 179.042969 49.867188 182.585938 45.402344 C 187.394531 39.347656 186.566406 31.429688 187.144531 24.261719 C 187.351562 21.675781 187.757812 18.738281 190.484375 17.601562 C 192.988281 16.554688 195.875 18.15625 197.894531 19.496094 C 202.398438 22.484375 204.304688 27.253906 204.066406 32.515625 C 203.726562 40.160156 198.867188 46.828125 198.230469 54.457031 C 197.609375 61.917969 203.425781 68.046875 209.246094 71.808594 C 214.550781 75.238281 221.199219 75.933594 226.910156 73.171875 C 233.105469 70.175781 235.882812 63.210938 236.679688 56.78125 C 237.839844 47.414062 233.160156 38.082031 230.578125 29.339844 C 228.039062 20.726562 227.8125 9.777344 236.054688 4.144531 C 241.710938 0.277344 249.40625 1.40625 255.167969 4.332031 C 263.234375 8.429688 267.757812 17.003906 267.332031 25.941406 C 266.921875 34.464844 262.636719 42.210938 263.398438 50.894531 C 263.953125 57.210938 267.660156 64.027344 274.035156 65.894531 C 279.234375 67.414062 284.234375 63.605469 286.070312 58.917969 C 287.382812 55.5625 287.585938 52.566406 287.027344 49.046875 C 286.628906 46.53125 286.085938 44.074219 286.582031 41.53125 C 287.121094 38.785156 291.019531 38.132812 291.394531 41.105469 C 291.5625 42.40625 291.21875 43.671875 290.726562 44.851562 C 290.335938 45.78125 291.851562 46.183594 292.230469 45.265625 C 293.503906 42.226562 292.210938 33.371094 287.355469 37.738281 C 284.769531 40.0625 284.601562 42.839844 284.996094 46.171875 C 285.589844 51.207031 286.394531 55.183594 283.859375 59.890625 C 281.992188 63.351562 278.285156 65.195312 274.453125 64.386719 C 269.644531 63.367188 266.863281 58.269531 265.5625 53.988281 C 262.847656 45.03125 267.742188 35.824219 268.800781 26.992188 C 270.480469 12.957031 259.070312 0.664062 245.277344 0.125 C 239.96875 -0.0820312 234.382812 2.183594 231.230469 6.574219 C 226.546875 13.101562 226.832031 21.128906 228.75 28.589844 C 231.410156 38.933594 236.863281 48.785156 234.625 59.765625 C 232.847656 68.464844 225.527344 74.625 216.550781 73.078125 C 207.757812 71.558594 199.101562 62.757812 199.863281 53.601562 C 200.5 45.96875 205.320312 39.363281 205.671875 31.597656 C 205.984375 24.601562 201.371094 18.667969 194.984375 16.234375 C 187.679688 13.453125 185.773438 20.699219 185.445312 26.195312 C 185.203125 30.265625 185.363281 34.128906 184.285156 38.105469 C 183.199219 42.097656 180.457031 48.273438 175.320312 47.015625 C 171.011719 45.964844 168.839844 40.585938 166.957031 37.132812 C 165.207031 33.910156 163.359375 30.628906 160.546875 28.210938 C 157.429688 25.527344 154.070312 26.652344 151.484375 29.363281 C 150.789062 30.09375 151.890625 31.203125 152.589844 30.472656 " fill-opacity="1" fill-rule="nonzero"/></g><path fill="#7e7f80" d="M 248.125 15.242188 C 243.433594 14.898438 240.890625 18.683594 239.660156 22.773438 C 239.460938 23.429688 240.375 23.765625 240.730469 23.222656 C 241.957031 21.332031 242.984375 19.273438 244.808594 17.863281 C 247.636719 15.675781 251.894531 18.347656 253.960938 20.367188 C 258.796875 25.101562 257.402344 35.074219 257.421875 41.191406 C 257.449219 49.664062 258.558594 61.867188 266.28125 67.136719 C 266.730469 67.445312 267.1875 66.777344 266.839844 66.40625 C 255.660156 54.382812 262.027344 38.125 258.054688 23.890625 C 256.855469 19.589844 252.71875 15.582031 248.125 15.242188 " fill-opacity="1" fill-rule="nonzero"/><path fill="#7e7f80" d="M 220.929688 28.132812 C 221.046875 33.398438 222.296875 38.097656 223.492188 43.199219 C 224.410156 47.132812 222.949219 56.734375 216.730469 53.964844 C 213.984375 52.746094 212.273438 49.589844 210.742188 47.175781 C 210.425781 46.675781 209.625 46.992188 209.785156 47.582031 C 210.890625 51.6875 214.457031 56.367188 219.105469 56.230469 C 225.351562 56.046875 225.992188 47.082031 225.136719 42.746094 C 224.425781 39.140625 223.152344 35.769531 222.78125 32.089844 C 222.496094 29.289062 222.441406 26.46875 222.507812 23.65625 C 222.644531 17.550781 223.4375 8.847656 229.304688 5.40625 C 229.917969 5.046875 229.378906 4.171875 228.757812 4.464844 C 220.820312 8.214844 220.769531 20.730469 220.929688 28.132812 " fill-opacity="1" fill-rule="nonzero"/><path fill="#7e7f80" d="M 196.957031 62.695312 C 196.082031 56.199219 195.261719 50.402344 197.234375 43.996094 C 198.1875 40.914062 198.957031 37.816406 199.316406 34.605469 C 199.9375 29.007812 197.960938 22.257812 191.285156 22.128906 C 190.785156 22.121094 190.507812 22.914062 191.015625 23.132812 C 194.191406 24.488281 196.4375 25.792969 197.398438 29.320312 C 198.273438 32.535156 197.617188 36.09375 196.914062 39.269531 C 196.171875 42.613281 195.019531 45.792969 194.566406 49.203125 C 193.96875 53.679688 194.558594 58.695312 196.027344 62.953125 C 196.234375 63.554688 197.039062 63.300781 196.957031 62.695312 " fill-opacity="1" fill-rule="nonzero"/><path fill="#7e7f80" d="M 177.910156 26.886719 C 179.257812 21.855469 176.777344 17.332031 181.285156 13.273438 C 185.148438 9.792969 191.339844 9.1875 195.320312 12.625 C 195.867188 13.097656 196.539062 12.398438 196.097656 11.847656 C 192.179688 6.957031 184.664062 8.714844 180.3125 12.011719 C 178.125 13.664062 176.523438 16.25 176.382812 19.03125 C 176.222656 22.210938 176.855469 25.5 175.425781 28.480469 C 173.148438 33.234375 169.066406 29.707031 166.78125 27.398438 C 166.21875 26.832031 165.355469 27.550781 165.707031 28.230469 C 168.988281 34.554688 176.105469 33.640625 177.910156 26.886719 " fill-opacity="1" fill-rule="nonzero"/><g clip-path="url(#id4)"><path fill="#7e7f80" d="M 278.785156 37.597656 C 278.285156 39.917969 278.214844 42.257812 277.273438 44.472656 C 274.574219 50.8125 269.09375 43.886719 267.433594 40.949219 C 267.171875 40.484375 266.457031 40.800781 266.585938 41.304688 C 268.050781 47.035156 274.589844 51.789062 278.546875 45.21875 C 280.710938 41.628906 279.796875 36.976562 282.039062 33.253906 C 286.316406 26.152344 293.445312 33.113281 295.117188 38.132812 C 295.242188 38.503906 295.757812 38.351562 295.695312 37.972656 C 294.75 32.429688 289.710938 27.203125 283.847656 29.726562 C 280.878906 31.003906 279.414062 34.695312 278.785156 37.597656 " fill-opacity="1" fill-rule="nonzero"/></g><path fill="#7e7f80" d="M 232.890625 28.0625 C 233.042969 28.363281 233.585938 28.238281 233.546875 27.882812 C 232.824219 21.449219 234.796875 16.625 240.65625 13.429688 C 246.390625 10.304688 253.636719 11.0625 257.878906 16.195312 C 258.191406 16.574219 258.832031 16.074219 258.558594 15.667969 C 250.554688 3.832031 225.796875 14.347656 232.890625 28.0625 " fill-opacity="1" fill-rule="nonzero"/><path fill="#7e7f80" d="M 236.859375 10.378906 C 236.4375 10.941406 237.300781 11.480469 237.769531 11.082031 C 239.945312 9.246094 242.019531 7.652344 244.742188 6.726562 C 248.148438 5.566406 251.128906 6.816406 254.203125 8.191406 C 254.363281 8.261719 254.484375 8.09375 254.382812 7.960938 C 249.742188 1.992188 240.699219 5.269531 236.859375 10.378906 " fill-opacity="1" fill-rule="nonzero"/><path fill="#7e7f80" d="M 286.617188 34.765625 C 286.761719 34.695312 286.636719 34.496094 286.496094 34.554688 C 282.898438 36.101562 282.214844 41.042969 281.265625 44.433594 C 280.5625 46.945312 279.949219 49.542969 278.640625 51.828125 C 276.984375 54.71875 274.765625 53.203125 272.371094 52.4375 C 271.984375 52.316406 271.546875 52.8125 271.8125 53.167969 C 274.863281 57.21875 279.035156 54.839844 280.59375 51.023438 C 281.738281 48.226562 282.332031 45.253906 283.046875 42.328125 C 283.585938 40.117188 284.355469 35.921875 286.617188 34.765625 " fill-opacity="1" fill-rule="nonzero"/><path fill="#7e7f80" d="M 268.925781 51.019531 C 269.097656 51.207031 269.476562 51.011719 269.375 50.757812 C 269.066406 49.996094 268.753906 49.21875 268.476562 48.445312 C 268.425781 48.3125 268.234375 48.296875 268.195312 48.445312 C 267.902344 49.460938 268.230469 50.265625 268.925781 51.019531 " fill-opacity="1" fill-rule="nonzero"/><path fill="#7e7f80" d="M 282.746094 51.773438 C 282.402344 52.492188 282.402344 53.328125 282.148438 54.089844 C 281.871094 54.914062 281.292969 55.691406 280.804688 56.398438 C 280.601562 56.695312 280.984375 56.980469 281.257812 56.851562 C 282.835938 56.097656 284.277344 53.3125 283.050781 51.734375 C 282.976562 51.636719 282.792969 51.667969 282.746094 51.773438 " fill-opacity="1" fill-rule="nonzero"/><path fill="#7e7f80" d="M 272.679688 56.824219 C 270.855469 55.644531 269.601562 53.871094 268.519531 52.027344 C 268.375 51.78125 268.042969 51.996094 268.152344 52.242188 C 269.085938 54.378906 270.113281 56.554688 271.992188 58.003906 C 273.847656 59.433594 276.46875 59.515625 278.621094 58.875 C 279.144531 58.71875 279.066406 57.855469 278.484375 57.890625 C 276.386719 58.019531 274.503906 58.003906 272.679688 56.824219 " fill-opacity="1" fill-rule="nonzero"/><path fill="#7e7f80" d="M 256.402344 8.648438 C 256.523438 9.1875 256.84375 9.511719 257.296875 9.808594 C 257.484375 9.933594 257.664062 9.699219 257.582031 9.523438 C 257.339844 9.007812 257.253906 8.582031 256.679688 8.367188 C 256.507812 8.304688 256.371094 8.492188 256.402344 8.648438 " fill-opacity="1" fill-rule="nonzero"/><path fill="#7e7f80" d="M 259.75 13.253906 C 262.15625 16.898438 263.515625 20.046875 263.328125 24.535156 C 263.234375 26.667969 262.394531 28.664062 262.21875 30.769531 C 262.027344 33.03125 262.5625 35.140625 262.902344 37.371094 C 262.925781 37.53125 263.175781 37.488281 263.175781 37.335938 C 263.164062 34.097656 263.160156 31.316406 264.09375 28.152344 C 264.75 25.945312 264.859375 23.636719 264.71875 21.355469 C 264.519531 18.128906 263.257812 14.347656 260.34375 12.660156 C 259.980469 12.449219 259.503906 12.882812 259.75 13.253906 " fill-opacity="1" fill-rule="nonzero"/><path fill="#7e7f80" d="M 208.113281 52.660156 C 207.832031 52.246094 207.042969 52.5 207.253906 53.023438 C 210.480469 61.09375 217.21875 65.636719 224.886719 59.789062 C 228.0625 57.371094 229.648438 53.566406 229.726562 49.65625 C 229.78125 47.085938 228.738281 44.394531 228.03125 41.96875 C 226.96875 38.304688 226.5 34.5 226.085938 30.710938 C 226.054688 30.445312 225.648438 30.429688 225.660156 30.710938 C 225.789062 34.28125 225.804688 37.542969 226.625 41.039062 C 227.742188 45.804688 229.394531 50.078125 227.179688 54.835938 C 225.363281 58.742188 220.371094 61.992188 216.0625 61.019531 C 212.273438 60.164062 210.097656 55.566406 208.113281 52.660156 " fill-opacity="1" fill-rule="nonzero"/><path fill="#7e7f80" d="M 206.113281 49.71875 C 206.171875 49.992188 206.546875 49.902344 206.570312 49.65625 C 207.140625 43.191406 209.234375 37.046875 209.871094 30.632812 C 210.316406 26.152344 208.523438 20.285156 204.523438 17.816406 C 204.1875 17.609375 203.78125 18.117188 204.097656 18.375 C 214.832031 27.070312 203.910156 39.234375 206.113281 49.71875 " fill-opacity="1" fill-rule="nonzero"/><path fill="#7e7f80" d="M 200.363281 15.839844 C 201.289062 16.101562 201.996094 16.554688 202.789062 17.078125 C 203.121094 17.300781 203.46875 16.878906 203.304688 16.5625 C 202.785156 15.550781 201.652344 15.175781 200.617188 14.921875 C 200.019531 14.773438 199.773438 15.671875 200.363281 15.839844 " fill-opacity="1" fill-rule="nonzero"/><path fill="#7e7f80" d="M 225.664062 21.488281 C 225.609375 20.949219 224.894531 20.957031 224.835938 21.488281 C 224.648438 23.175781 224.429688 25.007812 224.855469 26.671875 C 224.921875 26.945312 225.324219 26.941406 225.394531 26.671875 C 225.835938 25.023438 225.832031 23.175781 225.664062 21.488281 " fill-opacity="1" fill-rule="nonzero"/><path fill="#7e7f80" d="M 224.253906 66.035156 C 224.683594 65.722656 224.441406 64.984375 223.875 65.140625 C 218.714844 66.570312 214.675781 66.210938 210.105469 63.21875 C 205.238281 60.035156 202.703125 54.902344 203.242188 49.15625 C 203.265625 48.894531 202.871094 48.804688 202.75 49.027344 C 200.066406 54.050781 204.714844 60.5 208.40625 63.613281 C 212.460938 67.035156 219.527344 69.445312 224.253906 66.035156 " fill-opacity="1" fill-rule="nonzero"/><path fill="#7e7f80" d="M 231.703125 52.472656 C 231.769531 52.730469 232.171875 52.742188 232.234375 52.472656 C 232.449219 51.519531 232.363281 50.523438 232.171875 49.566406 C 232.109375 49.242188 231.570312 49.234375 231.515625 49.566406 C 231.351562 50.53125 231.460938 51.53125 231.703125 52.472656 " fill-opacity="1" fill-rule="nonzero"/><path fill="#7e7f80" d="M 227.460938 63.34375 C 230.074219 62.402344 233.023438 58.105469 232.097656 55.289062 C 231.976562 54.917969 231.460938 54.910156 231.34375 55.289062 C 230.863281 56.804688 230.734375 58.144531 229.8125 59.511719 C 229.011719 60.695312 227.675781 61.523438 227.054688 62.8125 C 226.929688 63.070312 227.136719 63.457031 227.460938 63.34375 " fill-opacity="1" fill-rule="nonzero"/><path fill="#7e7f80" d="M 192.476562 12.617188 C 189.441406 11.667969 186.644531 11.960938 184.222656 14.121094 C 182.183594 15.9375 180.648438 19.636719 181.335938 22.335938 C 181.433594 22.71875 181.949219 22.675781 182.066406 22.335938 C 182.917969 19.832031 182.902344 17.414062 184.613281 15.199219 C 186.46875 12.796875 189.5625 12.449219 192.328125 13.15625 C 192.679688 13.25 192.820312 12.722656 192.476562 12.617188 " fill-opacity="1" fill-rule="nonzero"/><path fill="#7e7f80" d="M 183.347656 24.855469 C 183.316406 24.332031 182.582031 24.335938 182.542969 24.855469 C 182.121094 30.554688 181.746094 39.394531 174.234375 39.390625 C 173.632812 39.390625 173.480469 40.332031 174.089844 40.460938 C 182.269531 42.160156 183.699219 30.46875 183.347656 24.855469 " fill-opacity="1" fill-rule="nonzero"/><path fill="#7e7f80" d="M 178.378906 34.496094 C 180 32.578125 180.828125 29.703125 180.503906 27.222656 C 180.433594 26.6875 179.71875 26.675781 179.660156 27.222656 C 179.453125 29.175781 178.90625 31.070312 177.921875 32.773438 C 177.386719 33.703125 176.59375 34.542969 175.585938 34.960938 C 174.632812 35.359375 173.601562 35.078125 172.617188 34.964844 C 172.085938 34.90625 172.039062 35.617188 172.375 35.867188 C 174.402344 37.367188 176.929688 36.210938 178.378906 34.496094 " fill-opacity="1" fill-rule="nonzero"/><path fill="#7e7f80" d="M 164.054688 26.574219 C 164.609375 27.246094 165.542969 26.289062 165.003906 25.625 C 163.324219 23.554688 157.578125 20.578125 155.5625 23.703125 C 155.417969 23.933594 155.65625 24.207031 155.902344 24.144531 C 158.742188 23.398438 162.109375 24.222656 164.054688 26.574219 " fill-opacity="1" fill-rule="nonzero"/><g clip-path="url(#id5)"><path fill="#7e7f80" d="M 153.398438 25.765625 C 154 25.417969 153.597656 24.390625 152.917969 24.625 C 151.9375 24.964844 150.535156 25.703125 150.324219 26.832031 C 150.257812 27.199219 150.566406 27.636719 150.988281 27.492188 C 151.894531 27.175781 152.558594 26.25 153.398438 25.765625 " fill-opacity="1" fill-rule="nonzero"/></g></svg>