<svg xmlns="http://www.w3.org/2000/svg" xmlns:xlink="http://www.w3.org/1999/xlink" width="400" zoomAndPan="magnify" viewBox="0 0 300 299.999988" height="400" preserveAspectRatio="xMidYMid meet" version="1.0"><path fill="#7e7f80" d="M 233.640625 180.988281 C 226.652344 170.851562 218.613281 160.394531 209.863281 150 C 218.613281 139.605469 226.652344 129.148438 233.640625 119.011719 C 271.554688 126.433594 294.117188 138.46875 294.117188 150 C 294.117188 161.53125 271.554688 173.566406 233.640625 180.988281 Z M 251.90625 251.90625 C 243.757812 260.070312 219.289062 252.625 187.230469 231.058594 C 189.453125 218.945312 191.167969 205.867188 192.328125 192.328125 C 205.863281 191.167969 218.945312 189.453125 231.054688 187.230469 C 252.617188 219.289062 260.058594 243.753906 251.90625 251.90625 Z M 150 202.433594 C 121.089844 202.433594 97.566406 178.910156 97.566406 150 C 97.566406 121.089844 121.089844 97.566406 150 97.566406 C 178.910156 97.566406 202.433594 121.089844 202.433594 150 C 202.433594 178.910156 178.910156 202.433594 150 202.433594 Z M 182.128906 227.484375 C 174 221.78125 165.484375 215.316406 156.609375 207.914062 C 167.753906 206.648438 177.9375 202.230469 186.28125 195.574219 C 185.246094 207.054688 183.835938 217.726562 182.128906 227.484375 Z M 150 294.117188 C 138.46875 294.117188 126.425781 271.546875 119.007812 233.609375 C 129.148438 226.617188 139.601562 218.59375 150 209.839844 C 160.402344 218.59375 170.851562 226.617188 180.992188 233.609375 C 173.574219 271.542969 161.53125 294.117188 150 294.117188 Z M 113.71875 195.574219 C 122.058594 202.226562 132.242188 206.644531 143.382812 207.910156 C 134.511719 215.3125 125.996094 221.777344 117.871094 227.476562 C 116.164062 217.71875 114.753906 207.046875 113.71875 195.574219 Z M 48.09375 251.90625 C 39.941406 243.753906 47.382812 219.289062 68.945312 187.230469 C 81.054688 189.453125 94.132812 191.167969 107.671875 192.328125 C 108.832031 205.863281 110.546875 218.9375 112.769531 231.046875 C 80.707031 252.609375 56.234375 260.054688 48.09375 251.90625 Z M 5.882812 150 C 5.882812 138.46875 28.445312 126.433594 66.359375 119.011719 C 73.347656 129.148438 81.386719 139.605469 90.136719 150 C 81.386719 160.394531 73.347656 170.851562 66.359375 180.988281 C 28.445312 173.566406 5.882812 161.53125 5.882812 150 Z M 104.425781 186.277344 C 92.949219 185.246094 82.277344 183.835938 72.515625 182.128906 C 78.21875 174 84.683594 165.484375 92.085938 156.613281 C 93.351562 167.753906 97.773438 177.9375 104.425781 186.277344 Z M 72.515625 117.871094 C 82.277344 116.164062 92.949219 114.753906 104.425781 113.71875 C 97.773438 122.0625 93.351562 132.246094 92.085938 143.386719 C 84.683594 134.515625 78.21875 126 72.515625 117.871094 Z M 48.09375 48.09375 C 50.253906 45.933594 53.550781 44.871094 57.835938 44.871094 C 69.726562 44.871094 89.207031 53.132812 112.765625 68.972656 C 110.542969 81.074219 108.832031 94.144531 107.671875 107.671875 C 94.132812 108.832031 81.054688 110.546875 68.945312 112.769531 C 47.382812 80.710938 39.941406 56.246094 48.09375 48.09375 Z M 117.875 72.496094 C 125.976562 78.183594 134.503906 84.71875 143.34375 92.09375 C 132.21875 93.363281 122.050781 97.78125 113.71875 104.425781 C 114.753906 92.941406 116.164062 82.261719 117.875 72.496094 Z M 150 5.882812 C 161.53125 5.882812 173.566406 28.445312 180.988281 66.363281 C 170.855469 73.351562 160.394531 81.386719 150 90.136719 C 139.605469 81.386719 129.148438 73.347656 119.011719 66.359375 C 126.433594 28.441406 138.46875 5.882812 150 5.882812 Z M 186.28125 104.425781 C 177.949219 97.78125 167.777344 93.363281 156.652344 92.09375 C 165.496094 84.71875 174.023438 78.183594 182.125 72.496094 C 183.835938 82.261719 185.242188 92.941406 186.28125 104.425781 Z M 227.484375 182.128906 C 217.726562 183.835938 207.050781 185.246094 195.574219 186.277344 C 202.230469 177.9375 206.648438 167.753906 207.914062 156.613281 C 215.3125 165.484375 221.78125 174 227.484375 182.128906 Z M 195.574219 113.71875 C 207.050781 114.753906 217.726562 116.164062 227.484375 117.871094 C 221.78125 126 215.3125 134.515625 207.914062 143.386719 C 206.648438 132.246094 202.230469 122.0625 195.574219 113.71875 Z M 242.164062 44.871094 C 246.445312 44.871094 249.75 45.9375 251.90625 48.09375 C 260.058594 56.246094 252.617188 80.710938 231.054688 112.769531 C 218.945312 110.546875 205.863281 108.832031 192.328125 107.671875 C 191.167969 94.144531 189.457031 81.074219 187.234375 68.972656 C 210.792969 53.128906 230.273438 44.871094 242.164062 44.871094 Z M 300 150 C 300 133.78125 273.695312 121.402344 237.066406 113.9375 C 257.691406 82.757812 267.535156 55.402344 256.066406 43.933594 C 244.601562 32.46875 217.246094 42.3125 186.0625 62.9375 C 178.601562 26.304688 166.21875 0 150 0 C 133.78125 0 121.402344 26.304688 113.9375 62.933594 C 82.761719 42.3125 55.410156 32.46875 43.933594 43.933594 C 32.464844 55.402344 42.308594 82.757812 62.933594 113.9375 C 26.304688 121.402344 0 133.78125 0 150 C 0 166.21875 26.304688 178.601562 62.933594 186.0625 C 42.308594 217.242188 32.464844 244.597656 43.933594 256.066406 C 47.261719 259.390625 51.917969 260.925781 57.621094 260.925781 C 71.585938 260.925781 91.796875 251.714844 113.9375 237.070312 C 121.402344 273.699219 133.78125 300 150 300 C 166.21875 300 178.597656 273.699219 186.0625 237.070312 C 208.203125 251.714844 228.414062 260.925781 242.378906 260.925781 C 248.078125 260.925781 252.738281 259.390625 256.066406 256.066406 C 267.535156 244.597656 257.691406 217.242188 237.066406 186.0625 C 273.695312 178.601562 300 166.21875 300 150 " fill-opacity="1" fill-rule="nonzero"/><path fill="#7e7f80" d="M 165.882812 166.261719 C 164.34375 166.433594 163.128906 167.570312 162.863281 169.09375 C 162.597656 170.605469 163.347656 172.078125 164.730469 172.761719 C 166.65625 173.726562 168.414062 174.960938 170.066406 176.523438 C 166.699219 175.742188 162.714844 174.183594 155.621094 170.558594 C 155.199219 170.34375 154.738281 170.238281 154.28125 170.238281 C 153.746094 170.238281 153.21875 170.382812 152.746094 170.671875 C 151.871094 171.207031 151.34375 172.15625 151.34375 173.179688 L 151.34375 176.195312 L 148.660156 176.195312 L 148.660156 173.179688 C 148.660156 172.15625 148.128906 171.207031 147.253906 170.671875 C 146.378906 170.132812 145.296875 170.089844 144.378906 170.558594 C 137.351562 174.148438 133.371094 175.71875 129.945312 176.507812 C 131.59375 174.949219 133.351562 173.722656 135.265625 172.765625 C 136.648438 172.082031 137.402344 170.609375 137.136719 169.09375 C 136.871094 167.570312 135.65625 166.433594 134.113281 166.261719 C 126.007812 165.355469 121.316406 164.347656 115.585938 161.75 C 121.695312 161.339844 126.019531 161.566406 132.210938 163.097656 C 133.527344 163.417969 134.890625 162.808594 135.523438 161.609375 C 136.152344 160.410156 135.882812 158.9375 134.867188 158.039062 C 128.019531 151.976562 124.84375 147.5625 120.621094 139.746094 C 128.769531 144.167969 134.296875 148.105469 141.554688 157.253906 C 142.382812 158.300781 143.816406 158.652344 145.035156 158.117188 C 146.257812 157.585938 146.96875 156.296875 146.761719 154.976562 C 144.113281 137.800781 146.425781 127.316406 150 115.78125 C 153.574219 127.316406 155.886719 137.804688 153.238281 154.976562 C 153.03125 156.296875 153.742188 157.585938 154.964844 158.117188 C 156.1875 158.652344 157.617188 158.300781 158.445312 157.253906 C 165.699219 148.105469 171.226562 144.171875 179.378906 139.746094 C 175.15625 147.5625 171.980469 151.976562 165.132812 158.039062 C 164.117188 158.9375 163.847656 160.410156 164.476562 161.609375 C 165.105469 162.808594 166.460938 163.421875 167.789062 163.097656 C 173.941406 161.582031 178.253906 161.34375 184.402344 161.753906 C 178.679688 164.351562 173.984375 165.355469 165.882812 166.261719 Z M 194.53125 156.765625 C 186.378906 155.949219 181.121094 155.421875 175.691406 155.824219 C 180.425781 150.414062 183.257812 145.15625 187.222656 137.460938 C 188.050781 135.851562 187.746094 133.914062 186.464844 132.640625 C 185.191406 131.363281 183.253906 131.066406 181.65625 131.898438 C 172.851562 136.453125 166.707031 139.832031 160.101562 146.480469 C 161.105469 131.039062 157.871094 120.972656 153.933594 108.742188 C 153.382812 107.03125 151.800781 105.882812 150 105.882812 C 148.199219 105.882812 146.621094 107.03125 146.0625 108.746094 C 142.128906 120.976562 138.894531 131.039062 139.898438 146.480469 C 133.292969 139.832031 127.152344 136.453125 118.347656 131.898438 C 116.753906 131.074219 114.816406 131.363281 113.535156 132.640625 C 112.253906 133.914062 111.949219 135.851562 112.777344 137.460938 C 116.746094 145.160156 119.574219 150.417969 124.308594 155.828125 C 118.863281 155.421875 113.503906 155.953125 105.117188 156.800781 C 103.847656 156.929688 102.804688 157.863281 102.535156 159.117188 C 102.273438 160.367188 102.84375 161.644531 103.953125 162.28125 C 113.296875 167.625 118.6875 169.84375 127.011719 171.234375 C 124.664062 173.234375 122.53125 175.710938 120.496094 178.761719 C 119.871094 179.695312 120.015625 180.894531 120.585938 181.867188 C 121.15625 182.839844 122.367188 183.339844 123.539062 183.296875 C 129.511719 182.808594 133.125 182.511719 142.777344 177.914062 L 142.777344 179.140625 C 142.777344 180.765625 144.09375 182.078125 145.71875 182.078125 L 154.28125 182.078125 C 155.90625 182.078125 157.222656 180.765625 157.222656 179.140625 L 157.222656 177.914062 C 166.882812 182.511719 170.53125 182.808594 176.816406 183.324219 C 176.894531 183.328125 176.976562 183.332031 177.058594 183.332031 C 178.09375 183.332031 179.058594 182.785156 179.589844 181.882812 C 180.164062 180.910156 180.128906 179.695312 179.503906 178.761719 C 177.472656 175.710938 175.335938 173.234375 172.988281 171.234375 C 181.3125 169.84375 186.703125 167.625 196.046875 162.28125 C 197.15625 161.644531 197.554688 160.347656 197.289062 159.101562 C 197.019531 157.847656 195.800781 156.894531 194.53125 156.765625 " fill-opacity="1" fill-rule="nonzero"/></svg>