<svg xmlns="http://www.w3.org/2000/svg" xmlns:xlink="http://www.w3.org/1999/xlink" width="400" zoomAndPan="magnify" viewBox="0 0 300 299.999988" height="400" preserveAspectRatio="xMidYMid meet" version="1.0"><defs><clipPath id="id1"><path d="M 62.046875 0 L 238.519531 0 L 238.519531 300 L 62.046875 300 Z M 62.046875 0 " clip-rule="nonzero"/></clipPath></defs><g clip-path="url(#id1)"><path fill="#7e7f80" d="M 124.449219 250.78125 L 176.332031 250.78125 C 178.199219 250.78125 179.722656 252.300781 179.722656 254.164062 C 179.722656 254.164062 179.722656 254.164062 179.722656 254.191406 L 179.722656 281.304688 L 121.03125 281.304688 L 121.03125 254.191406 C 121.03125 252.300781 122.554688 250.78125 124.449219 250.78125 Z M 216.5 223.800781 L 216.527344 223.800781 C 217.328125 224.867188 217.941406 226.066406 218.289062 227.34375 C 218.34375 227.558594 218.449219 227.742188 218.609375 227.875 C 219.382812 228.648438 220.449219 229.046875 221.546875 228.941406 C 221.8125 228.914062 222 228.675781 221.972656 228.410156 C 221.972656 228.410156 221.972656 228.382812 221.972656 228.382812 C 221.546875 225.71875 219.222656 223.773438 216.527344 223.800781 Z M 84.039062 223.800781 C 81.34375 223.773438 79.023438 225.71875 78.59375 228.382812 C 78.566406 228.648438 78.726562 228.914062 78.996094 228.941406 C 78.996094 228.941406 79.023438 228.941406 79.046875 228.941406 C 80.117188 229.046875 81.210938 228.648438 81.957031 227.875 C 82.117188 227.742188 82.222656 227.558594 82.277344 227.34375 C 82.625 226.066406 83.238281 224.839844 84.039062 223.800781 Z M 233.046875 214.71875 C 228.324219 217.167969 225.601562 222.257812 226.1875 227.558594 C 226.214844 227.769531 226.402344 227.957031 226.644531 227.984375 C 229.871094 228.117188 232.621094 225.640625 232.78125 222.417969 C 232.808594 221.671875 232.703125 220.953125 232.460938 220.257812 C 231.582031 218.449219 231.820312 216.289062 233.046875 214.71875 Z M 67.546875 214.71875 C 68.773438 216.289062 68.988281 218.449219 68.105469 220.234375 C 67.066406 223.296875 68.691406 226.625 71.734375 227.664062 C 72.457031 227.902344 73.203125 228.007812 73.925781 227.984375 C 74.164062 227.957031 74.351562 227.769531 74.378906 227.53125 C 74.964844 222.257812 72.242188 217.167969 67.519531 214.71875 Z M 83.480469 204.707031 C 81.476562 204.757812 79.636719 205.902344 78.726562 207.6875 C 78.59375 207.929688 78.703125 208.222656 78.941406 208.328125 C 78.96875 208.328125 78.96875 208.355469 78.96875 208.355469 L 78.996094 208.328125 C 79.984375 208.78125 81.128906 208.726562 82.117188 208.222656 C 82.304688 208.140625 82.4375 208.007812 82.542969 207.820312 C 83.292969 206.730469 84.253906 205.742188 85.347656 205 C 84.761719 204.785156 84.144531 204.707031 83.503906 204.707031 Z M 216.953125 204.707031 C 216.367188 204.707031 215.78125 204.785156 215.246094 205 C 216.339844 205.742188 217.273438 206.703125 218.023438 207.820312 C 218.128906 208.007812 218.289062 208.140625 218.476562 208.222656 C 219.4375 208.726562 220.585938 208.753906 221.597656 208.328125 C 221.839844 208.222656 221.972656 207.953125 221.867188 207.714844 C 221.867188 207.6875 221.867188 207.6875 221.867188 207.660156 C 220.90625 205.824219 219.011719 204.679688 216.953125 204.707031 Z M 228.164062 191.253906 C 224.429688 195.039062 223.414062 200.738281 225.601562 205.585938 C 225.710938 205.796875 225.949219 205.902344 226.164062 205.851562 C 229.285156 205 231.128906 201.777344 230.273438 198.6875 C 230.085938 197.96875 229.765625 197.300781 229.3125 196.6875 C 227.925781 195.25 227.46875 193.144531 228.164062 191.253906 Z M 72.429688 191.253906 C 73.125 193.144531 72.667969 195.25 71.28125 196.6875 C 69.332031 199.273438 69.867188 202.949219 72.457031 204.863281 C 73.042969 205.316406 73.710938 205.636719 74.429688 205.851562 C 74.644531 205.929688 74.910156 205.796875 75.019531 205.585938 C 77.179688 200.738281 76.164062 195.039062 72.457031 191.253906 Z M 88.84375 186.433594 C 87.480469 186.488281 86.203125 187.046875 85.242188 188.007812 C 85.027344 188.191406 85.027344 188.511719 85.1875 188.699219 C 85.214844 188.699219 85.214844 188.699219 85.242188 188.726562 C 86.042969 189.445312 87.164062 189.765625 88.230469 189.578125 C 88.417969 189.550781 88.601562 189.472656 88.761719 189.363281 C 89.832031 188.511719 91.03125 187.898438 92.3125 187.5 C 91.300781 186.753906 90.070312 186.382812 88.816406 186.433594 Z M 211.5625 186.40625 C 210.363281 186.382812 209.160156 186.78125 208.199219 187.472656 C 209.480469 187.871094 210.683594 188.511719 211.722656 189.335938 C 211.882812 189.445312 212.097656 189.550781 212.285156 189.578125 C 213.378906 189.765625 214.472656 189.445312 215.300781 188.726562 C 215.488281 188.566406 215.511719 188.246094 215.328125 188.058594 C 215.328125 188.03125 215.300781 188.03125 215.300781 188.03125 C 214.285156 187.019531 212.953125 186.433594 211.535156 186.40625 Z M 147.667969 178.523438 C 148.363281 188.164062 144.890625 197.621094 138.140625 204.546875 C 131.359375 210.777344 130.1875 221.003906 135.363281 228.621094 C 134.589844 223.933594 135.65625 219.140625 138.351562 215.199219 C 139.367188 213.707031 141.289062 213.148438 142.96875 213.839844 C 144.917969 207.15625 149.777344 201.695312 156.207031 198.953125 C 154.632812 206.089844 156.847656 213.519531 162.082031 218.609375 C 164.375 221.644531 165.363281 225.453125 164.828125 229.207031 C 166.644531 226.679688 167.738281 223.695312 167.953125 220.605469 C 167.925781 215.066406 166.722656 209.578125 164.375 204.570312 C 163.203125 205.769531 161.679688 206.621094 160.023438 206.996094 C 161.039062 196.050781 156.367188 185.289062 147.667969 178.523438 Z M 200.355469 170.722656 C 198.671875 170.800781 197.097656 171.625 196.136719 173.011719 C 197.472656 172.984375 198.777344 173.222656 200.035156 173.675781 C 200.21875 173.757812 200.433594 173.785156 200.648438 173.757812 C 201.742188 173.597656 202.703125 172.929688 203.261719 172 C 203.371094 171.757812 203.289062 171.464844 203.050781 171.359375 C 203.023438 171.359375 202.996094 171.332031 202.996094 171.332031 C 202.167969 170.90625 201.234375 170.695312 200.300781 170.746094 Z M 100.054688 170.722656 C 99.144531 170.695312 98.265625 170.90625 97.464844 171.332031 C 97.222656 171.414062 97.089844 171.679688 97.199219 171.945312 C 97.199219 171.972656 97.199219 171.972656 97.222656 172 C 97.785156 172.929688 98.71875 173.597656 99.8125 173.730469 C 100.027344 173.757812 100.214844 173.730469 100.398438 173.675781 C 101.65625 173.199219 102.988281 172.984375 104.351562 172.984375 C 103.335938 171.574219 101.707031 170.722656 99.972656 170.695312 Z M 216.289062 170.453125 C 213.9375 175.222656 214.738281 180.921875 218.316406 184.863281 C 218.476562 185.023438 218.742188 185.078125 218.929688 184.941406 C 221.652344 183.183594 222.453125 179.589844 220.71875 176.875 C 220.316406 176.234375 219.785156 175.703125 219.195312 175.273438 C 217.410156 174.316406 216.3125 172.453125 216.394531 170.453125 Z M 84.332031 170.453125 C 84.386719 172.453125 83.320312 174.316406 81.53125 175.273438 C 78.914062 177.140625 78.300781 180.789062 80.195312 183.425781 C 80.625 184.011719 81.15625 184.542969 81.796875 184.917969 L 81.796875 184.941406 C 81.984375 185.078125 82.25 185.050781 82.410156 184.863281 C 85.988281 180.921875 86.789062 175.222656 84.414062 170.453125 Z M 150.550781 168.9375 L 150.578125 168.9375 C 184.394531 169.042969 211.75 196.503906 211.617188 230.273438 C 211.5625 250.96875 200.996094 270.222656 183.539062 281.464844 L 183.539062 254.191406 C 183.539062 250.195312 180.308594 246.972656 176.332031 246.972656 L 154.207031 246.972656 C 153.140625 246.972656 152.285156 246.121094 152.285156 245.082031 L 152.285156 239.222656 C 154.179688 238.984375 155.914062 237.996094 157.035156 236.453125 C 158.210938 234.242188 159.492188 232.109375 160.851562 230.007812 C 161.707031 226.945312 161.121094 223.667969 159.25 221.113281 C 155.222656 217.089844 152.710938 211.789062 152.097656 206.144531 C 147.027344 210.882812 144.867188 217.96875 146.46875 224.734375 C 143.585938 223.375 141.714844 220.527344 141.582031 217.355469 C 137.472656 223.375 138.378906 231.472656 143.691406 236.453125 C 144.8125 237.996094 146.519531 238.984375 148.414062 239.222656 L 148.414062 245.082031 C 148.414062 246.121094 147.5625 246.972656 146.519531 246.972656 L 124.394531 246.972656 C 120.417969 246.972656 117.1875 250.195312 117.1875 254.191406 L 117.1875 281.464844 C 88.738281 263.191406 80.515625 225.347656 98.824219 196.980469 C 110.140625 179.429688 129.625 168.855469 150.523438 168.9375 Z M 185.273438 159.160156 C 182.925781 159.1875 180.871094 160.734375 180.148438 162.996094 C 181.429688 162.542969 182.765625 162.359375 184.097656 162.410156 C 184.285156 162.410156 184.5 162.382812 184.6875 162.277344 C 185.675781 161.773438 186.367188 160.894531 186.609375 159.828125 C 186.6875 159.5625 186.527344 159.296875 186.261719 159.242188 C 186.234375 159.242188 186.234375 159.242188 186.207031 159.214844 C 185.914062 159.160156 185.59375 159.160156 185.273438 159.160156 Z M 115.160156 159.160156 C 114.894531 159.160156 114.625 159.1875 114.359375 159.242188 C 114.09375 159.269531 113.933594 159.535156 113.957031 159.800781 C 113.984375 159.800781 113.984375 159.828125 113.984375 159.828125 C 114.226562 160.894531 114.917969 161.796875 115.90625 162.277344 C 116.09375 162.382812 116.308594 162.410156 116.496094 162.410156 C 117.855469 162.359375 119.191406 162.542969 120.445312 162.996094 C 119.722656 160.707031 117.589844 159.136719 115.160156 159.160156 Z M 182.925781 154.925781 C 182.523438 154.953125 182.230469 155.300781 182.257812 155.699219 C 182.285156 155.964844 182.445312 156.207031 182.683594 156.3125 C 214.550781 169.789062 231.046875 205.132812 220.878906 238.15625 C 220.769531 238.53125 220.984375 238.957031 221.359375 239.0625 C 221.757812 239.195312 222.160156 238.957031 222.265625 238.582031 C 232.648438 204.863281 215.808594 168.75 183.273438 154.980469 C 183.140625 154.925781 183.003906 154.925781 182.871094 154.925781 Z M 117.480469 154.925781 C 117.375 154.925781 117.296875 154.953125 117.214844 154.980469 C 84.652344 168.75 67.8125 204.839844 78.195312 238.582031 C 78.382812 238.929688 78.808594 239.089844 79.15625 238.929688 C 79.449219 238.769531 79.609375 238.476562 79.554688 238.15625 C 69.386719 205.132812 85.90625 169.789062 117.773438 156.3125 C 118.121094 156.152344 118.28125 155.726562 118.121094 155.351562 C 117.988281 155.058594 117.722656 154.902344 117.402344 154.925781 Z M 198.484375 154.339844 C 197.710938 159.589844 200.246094 164.78125 204.863281 167.417969 C 205.050781 167.550781 205.316406 167.5 205.476562 167.3125 C 207.507812 164.808594 207.078125 161.132812 204.570312 159.109375 C 203.984375 158.65625 203.34375 158.308594 202.621094 158.070312 C 200.648438 157.722656 199.046875 156.285156 198.484375 154.367188 Z M 102.109375 154.339844 C 101.519531 156.257812 99.917969 157.695312 97.945312 158.042969 L 97.945312 158.070312 C 94.847656 159.027344 93.113281 162.277344 94.074219 165.367188 C 94.289062 166.058594 94.636719 166.726562 95.089844 167.3125 C 95.25 167.5 95.515625 167.523438 95.730469 167.390625 C 100.347656 164.78125 102.882812 159.589844 102.109375 154.339844 Z M 150.230469 151.945312 C 150.097656 151.972656 149.988281 152.050781 149.9375 152.15625 L 147.855469 156.578125 C 147.242188 157.910156 147.828125 159.507812 149.164062 160.121094 C 150.496094 160.734375 152.070312 160.148438 152.710938 158.816406 C 153.03125 158.125 153.03125 157.296875 152.710938 156.578125 L 150.628906 152.15625 C 150.550781 151.996094 150.390625 151.917969 150.230469 151.945312 Z M 145.105469 148.988281 L 140.25 149.414062 C 138.78125 149.519531 137.6875 150.800781 137.820312 152.289062 C 137.925781 153.753906 139.207031 154.847656 140.675781 154.714844 C 141.476562 154.660156 142.195312 154.234375 142.648438 153.59375 L 145.453125 149.601562 C 145.585938 149.414062 145.53125 149.175781 145.347656 149.042969 C 145.265625 148.988281 145.1875 148.988281 145.105469 148.988281 Z M 155.460938 148.960938 C 155.246094 148.960938 155.0625 149.121094 155.035156 149.335938 C 155.035156 149.441406 155.0625 149.519531 155.113281 149.601562 L 157.917969 153.59375 C 158.769531 154.792969 160.425781 155.085938 161.625 154.234375 C 162.828125 153.410156 163.121094 151.730469 162.292969 150.53125 C 161.839844 149.894531 161.121094 149.46875 160.320312 149.414062 Z M 176.601562 144.511719 C 177.480469 149.734375 181.511719 153.886719 186.714844 154.980469 C 186.957031 155.007812 187.167969 154.902344 187.25 154.660156 C 188.398438 151.652344 186.875 148.269531 183.859375 147.148438 C 183.164062 146.882812 182.445312 146.75 181.699219 146.75 C 179.695312 147.042969 177.722656 146.164062 176.601562 144.511719 Z M 123.96875 144.511719 C 122.847656 146.164062 120.871094 147.042969 118.871094 146.75 C 115.640625 146.722656 112.996094 149.28125 112.945312 152.503906 C 112.917969 153.25 113.050781 153.996094 113.316406 154.660156 C 113.398438 154.902344 113.636719 155.007812 113.851562 154.980469 C 119.054688 153.886719 123.085938 149.734375 123.96875 144.511719 Z M 160.105469 138.09375 C 159.226562 138.09375 158.425781 138.519531 157.917969 139.238281 L 155.113281 143.207031 C 154.980469 143.394531 155.007812 143.632812 155.195312 143.769531 C 155.273438 143.820312 155.382812 143.847656 155.460938 143.847656 L 160.34375 143.421875 C 161.8125 143.339844 162.960938 142.089844 162.882812 140.625 C 162.800781 139.160156 161.546875 138.015625 160.078125 138.09375 Z M 140.433594 138.09375 C 138.96875 138.015625 137.710938 139.160156 137.632812 140.625 C 137.550781 142.089844 138.699219 143.339844 140.167969 143.421875 L 145.027344 143.847656 C 145.265625 143.875 145.453125 143.714844 145.480469 143.476562 C 145.480469 143.394531 145.453125 143.289062 145.398438 143.207031 L 142.570312 139.238281 C 142.089844 138.519531 141.234375 138.066406 140.355469 138.09375 Z M 150.125 132.449219 C 148.628906 132.554688 147.535156 133.808594 147.613281 135.273438 C 147.640625 135.617188 147.722656 135.9375 147.855469 136.230469 L 149.910156 140.652344 C 150.015625 140.839844 150.257812 140.917969 150.46875 140.839844 C 150.550781 140.785156 150.605469 140.730469 150.65625 140.652344 L 152.710938 136.230469 C 153.328125 134.898438 152.765625 133.300781 151.40625 132.6875 C 151.003906 132.5 150.550781 132.421875 150.125 132.449219 Z M 150.363281 127.679688 C 197.015625 127.707031 234.785156 165.472656 234.757812 212.003906 C 234.730469 239.703125 221.089844 265.617188 198.246094 281.328125 L 190.238281 281.328125 C 218.609375 259.304688 223.734375 218.527344 201.6875 190.214844 C 179.617188 161.90625 138.753906 156.792969 110.382812 178.789062 C 82.011719 200.816406 76.886719 241.59375 98.960938 269.902344 C 102.269531 274.164062 106.113281 278 110.382812 281.328125 L 102.375 281.328125 C 63.96875 254.910156 54.308594 202.414062 80.785156 164.117188 C 96.558594 141.289062 122.578125 127.65625 150.363281 127.679688 Z M 150.125 103.65625 C 152.367188 103.632812 154.179688 105.414062 154.207031 107.652344 C 154.207031 107.679688 154.207031 107.707031 154.207031 107.707031 C 154.285156 109.941406 152.527344 111.808594 150.285156 111.886719 C 148.042969 111.941406 146.171875 110.183594 146.09375 107.945312 C 146.09375 107.867188 146.09375 107.785156 146.09375 107.707031 C 146.09375 105.496094 147.882812 103.683594 150.125 103.65625 Z M 150.125 96.015625 C 149.882812 96.015625 149.695312 96.09375 149.507812 96.226562 C 147.589844 97.929688 147.132812 100.78125 148.441406 102.992188 C 148.308594 103.046875 148.175781 103.097656 148.042969 103.152344 C 147.375 100.675781 145.050781 98.996094 142.488281 99.128906 C 142.007812 99.183594 141.609375 99.554688 141.582031 100.0625 C 141.421875 102.617188 143.128906 104.960938 145.613281 105.601562 C 145.53125 105.734375 145.453125 105.867188 145.371094 105.976562 C 143.128906 104.695312 140.300781 105.148438 138.59375 107.066406 C 138.273438 107.441406 138.273438 108 138.59375 108.371094 C 140.300781 110.289062 143.128906 110.742188 145.371094 109.4375 C 145.453125 109.597656 145.53125 109.703125 145.613281 109.835938 C 143.128906 110.503906 141.421875 112.820312 141.582031 115.375 C 141.609375 115.855469 142.007812 116.253906 142.488281 116.308594 C 145.078125 116.441406 147.402344 114.765625 148.042969 112.285156 C 148.175781 112.339844 148.308594 112.394531 148.441406 112.421875 C 147.132812 114.65625 147.589844 117.480469 149.507812 119.183594 C 149.882812 119.53125 150.46875 119.53125 150.84375 119.183594 C 152.765625 117.480469 153.21875 114.65625 151.910156 112.421875 C 152.046875 112.394531 152.179688 112.339844 152.3125 112.285156 C 152.953125 114.765625 155.300781 116.441406 157.863281 116.308594 C 158.34375 116.253906 158.746094 115.855469 158.769531 115.375 C 158.929688 112.820312 157.25 110.503906 154.742188 109.835938 C 154.847656 109.703125 154.925781 109.597656 155.007812 109.4375 C 157.25 110.742188 160.078125 110.289062 161.785156 108.371094 C 162.105469 108 162.105469 107.441406 161.785156 107.066406 C 160.078125 105.148438 157.25 104.695312 155.007812 105.976562 C 154.925781 105.839844 154.847656 105.734375 154.742188 105.601562 C 157.25 104.9375 158.929688 102.617188 158.769531 100.0625 C 158.746094 99.554688 158.34375 99.183594 157.863281 99.128906 C 155.300781 98.996094 152.980469 100.675781 152.3125 103.152344 C 152.179688 103.097656 152.046875 103.046875 151.910156 102.992188 C 153.21875 100.78125 152.765625 97.929688 150.84375 96.226562 C 150.628906 96.066406 150.363281 95.988281 150.125 96.015625 Z M 106.164062 91.539062 L 194.214844 91.539062 C 186.636719 115.800781 160.800781 129.332031 136.484375 121.796875 C 122.019531 117.292969 110.675781 105.976562 106.164062 91.539062 Z M 103.738281 87.757812 C 102.667969 87.730469 101.816406 88.582031 101.816406 89.621094 C 101.816406 89.78125 101.839844 89.941406 101.867188 90.101562 C 105.925781 106.082031 117.613281 119.023438 133.121094 124.671875 C 133.390625 124.726562 133.523438 125.019531 133.441406 125.257812 C 133.414062 125.417969 133.28125 125.523438 133.121094 125.578125 C 85.320312 135.03125 54.253906 181.375 63.753906 229.074219 C 68.1875 251.421875 81.128906 271.183594 99.894531 284.207031 L 99.894531 298.109375 C 99.867188 299.121094 100.667969 299.945312 101.65625 300 L 198.859375 300 C 199.898438 300 200.726562 299.148438 200.726562 298.109375 L 200.726562 284.207031 C 240.734375 256.425781 250.582031 201.535156 222.71875 161.640625 C 209.667969 142.941406 189.890625 130.023438 167.5 125.578125 C 167.230469 125.496094 167.097656 125.230469 167.179688 124.992188 C 167.203125 124.832031 167.339844 124.699219 167.5 124.671875 C 183.003906 119.023438 194.695312 106.082031 198.753906 90.101562 C 199.019531 89.089844 198.40625 88.050781 197.363281 87.8125 C 197.230469 87.757812 197.070312 87.757812 196.882812 87.757812 Z M 175.664062 7.109375 C 174.679688 7.191406 173.957031 8.042969 174.011719 9.027344 C 174.0625 9.453125 174.222656 9.855469 174.542969 10.148438 C 184.847656 20.800781 185.753906 37.367188 176.679688 49.058594 C 169.285156 59.257812 169.285156 73.027344 176.679688 83.203125 C 177.265625 83.976562 178.414062 84.136719 179.1875 83.550781 C 179.9375 82.964844 180.121094 81.898438 179.589844 81.125 C 173.101562 72.175781 173.128906 60.136719 179.589844 51.214844 C 189.730469 38.113281 188.691406 19.574219 177.160156 7.695312 C 176.785156 7.296875 176.253906 7.085938 175.71875 7.109375 Z M 124.554688 7.109375 C 123.566406 7.085938 122.738281 7.855469 122.714844 8.84375 C 122.6875 9.320312 122.875 9.800781 123.21875 10.148438 C 133.523438 20.800781 134.429688 37.367188 125.328125 49.058594 C 117.933594 59.257812 117.933594 73.027344 125.328125 83.203125 C 125.914062 84.003906 127.035156 84.1875 127.835938 83.601562 C 128.636719 83.015625 128.796875 81.898438 128.238281 81.125 C 121.753906 72.203125 121.777344 60.136719 128.238281 51.214844 C 138.378906 38.113281 137.339844 19.574219 125.808594 7.695312 C 125.488281 7.351562 125.035156 7.136719 124.582031 7.109375 Z M 150.363281 0 C 149.375 -0.0546875 148.523438 0.691406 148.46875 1.679688 C 148.441406 2.183594 148.601562 2.664062 148.949219 3.007812 C 159.277344 13.664062 160.183594 30.230469 151.109375 41.921875 C 143.71875 52.09375 143.71875 65.863281 151.109375 76.039062 C 151.671875 76.835938 152.792969 77.023438 153.59375 76.4375 C 154.394531 75.878906 154.582031 74.761719 153.992188 73.960938 C 147.535156 65.039062 147.535156 52.972656 154.019531 44.050781 C 164.136719 30.949219 163.121094 12.4375 151.589844 0.53125 C 151.269531 0.214844 150.84375 0.0273438 150.390625 0 L 150.363281 0 " fill-opacity="1" fill-rule="nonzero"/></g></svg>