<?xml version="1.0" standalone="no"?>
<!DOCTYPE svg PUBLIC "-//W3C//DTD SVG 20010904//EN"
 "http://www.w3.org/TR/2001/REC-SVG-20010904/DTD/svg10.dtd">
<svg version="1.0" xmlns="http://www.w3.org/2000/svg"
 width="200.000000pt" height="200.000000pt" viewBox="0 0 200.000000 200.000000"
 preserveAspectRatio="xMidYMid meet">
<metadata>
Created by potrace 1.14, written by Peter Selinger 2001-2017
</metadata>
<g transform="translate(0.000000,200.000000) scale(0.100000,-0.100000)"
fill="#000000" stroke="none">
<path d="M780 1735 c-233 -59 -532 -253 -670 -435 l-34 -45 51 48 c57 51 81
61 62 25 -10 -18 -3 -16 32 13 72 58 74 55 22 -22 -56 -83 -93 -151 -93 -172
0 -8 -19 -33 -43 -57 -23 -23 -33 -38 -22 -32 31 17 66 51 135 131 57 67 65
72 76 56 11 -14 10 -21 -2 -41 -9 -13 -22 -20 -30 -17 -9 3 -12 0 -9 -8 7 -20
-50 -84 -66 -74 -9 6 -11 4 -6 -7 3 -10 -9 -29 -34 -54 -21 -21 -46 -57 -55
-81 -9 -24 -27 -64 -40 -90 -26 -51 -31 -100 -12 -126 13 -17 76 -46 93 -44 5
1 21 -19 35 -44 28 -51 69 -107 106 -144 46 -46 151 -115 222 -145 83 -35 93
-37 61 -11 -23 19 -22 19 121 17 80 0 159 2 177 6 68 13 173 53 173 64 0 3
-33 4 -74 2 -41 -2 -73 -1 -70 4 3 4 0 8 -5 8 -6 0 -11 -5 -11 -11 0 -5 -5 -7
-12 -3 -7 4 -34 6 -60 5 -47 -2 -148 23 -148 38 0 4 24 7 53 7 55 1 172 11
222 20 110 19 297 82 399 134 43 22 61 19 30 -5 -19 -15 -19 -15 1 -9 17 5 17
4 4 -5 -24 -16 -299 -120 -339 -128 -29 -7 -22 -9 45 -13 l80 -5 -85 -41
c-160 -77 -215 -94 -310 -96 -71 -2 -66 -12 16 -37 l59 -18 -54 -13 c-30 -7
-73 -13 -97 -14 -71 -2 -60 -14 21 -21 155 -15 374 18 565 85 90 31 336 124
340 128 3 2 -16 2 -41 -2 -90 -13 -129 -17 -129 -12 0 3 60 51 132 107 124 95
305 265 295 276 -6 5 -88 -44 -177 -107 -82 -57 -190 -121 -254 -149 -44 -19
-156 -53 -156 -47 0 2 22 17 49 34 27 18 63 48 80 67 17 19 33 35 37 35 3 0
18 8 32 18 50 35 67 35 33 0 -46 -47 -38 -52 23 -15 69 40 178 136 170 148 -3
5 0 8 7 7 6 -2 14 3 17 11 3 9 0 11 -9 6 -8 -5 -11 -4 -6 1 5 5 14 9 20 9 20
0 55 77 82 180 30 118 59 183 108 247 l37 48 -53 -2 c-57 -2 -94 7 -115 28 -9
10 -19 11 -32 4 -13 -7 -21 -5 -30 5 -7 9 -21 13 -30 10 -22 -7 -113 32 -106
44 4 5 24 12 46 16 65 11 55 22 -28 29 -83 6 -177 21 -177 26 0 1 -16 4 -35 6
-19 3 -41 5 -47 6 -7 1 -13 7 -13 15 0 7 -7 13 -16 13 -9 0 -12 5 -8 13 6 9 4
9 -7 1 -10 -8 -29 -7 -74 7 -50 16 -53 18 -20 14 22 -3 51 -7 65 -10 32 -7
-59 28 -125 49 l-50 15 55 -3 c30 -2 82 -14 115 -26 94 -34 297 -99 327 -104
15 -2 34 1 44 8 14 11 10 14 -32 26 -27 7 -62 20 -79 28 l-30 16 25 6 c14 3
51 6 83 5 70 -2 68 2 -8 16 -33 6 -147 39 -254 74 -108 34 -226 69 -262 77
-84 19 -229 21 -299 3z m-396 -392 c-9 -16 -27 -43 -38 -60 -23 -36 -31 -40
-39 -18 -4 8 12 32 40 60 53 52 63 56 37 18z m1361 -452 c-21 -43 -29 -39 -8
4 9 19 18 33 21 31 2 -2 -4 -18 -13 -35z m-325 -199 c0 -4 -9 -13 -20 -20 -16
-10 -20 -10 -20 2 0 8 6 17 13 19 19 8 27 8 27 -1z"/>
</g>
</svg>
